G04*
G04 #@! TF.GenerationSoftware,Altium Limited,Altium Designer,23.4.1 (23)*
G04*
G04 Layer_Physical_Order=2*
G04 Layer_Color=0*
%FSLAX44Y44*%
%MOMM*%
G71*
G04*
G04 #@! TF.SameCoordinates,82385B22-F4C2-4F25-A143-551C1675324C*
G04*
G04*
G04 #@! TF.FilePolarity,Positive*
G04*
G01*
G75*
%ADD14C,0.2540*%
%ADD43C,0.5000*%
%ADD45C,6.0000*%
%ADD46R,1.2000X1.2000*%
%ADD47C,1.2000*%
%ADD48C,1.5000*%
%ADD49R,1.5000X1.5000*%
%ADD50C,1.5240*%
%ADD51C,1.5200*%
%ADD52C,3.0000*%
%ADD53R,1.5200X1.5200*%
%ADD54C,1.6500*%
%ADD55R,1.6500X1.6500*%
%ADD56C,0.7000*%
%ADD57C,1.0000*%
%ADD58C,1.2700*%
%ADD59R,0.7200X0.7600*%
%ADD60C,0.8000*%
G36*
X325011Y1133205D02*
X1080005D01*
X1081305Y1133204D01*
X1083856Y1132696D01*
X1086258Y1131700D01*
X1088420Y1130255D01*
X1090258Y1128416D01*
X1091703Y1126253D01*
X1092698Y1123851D01*
X1093205Y1121300D01*
X1093205Y1120000D01*
Y1075000D01*
Y547500D01*
Y546199D01*
X1092697Y543648D01*
X1091702Y541245D01*
X1090257Y539082D01*
X1088418Y537243D01*
X1086255Y535798D01*
X1083852Y534803D01*
X1081301Y534295D01*
X1080000Y534295D01*
X918981D01*
X918882Y535565D01*
X920120Y535761D01*
X924991Y537344D01*
X929555Y539669D01*
X933699Y542680D01*
X937320Y546302D01*
X940331Y550445D01*
X942656Y555009D01*
X944239Y559880D01*
X945040Y564939D01*
Y565500D01*
X879960D01*
Y564939D01*
X880761Y559880D01*
X882344Y555009D01*
X884669Y550445D01*
X887680Y546302D01*
X891302Y542680D01*
X895445Y539669D01*
X900009Y537344D01*
X904880Y535761D01*
X906119Y535565D01*
X906019Y534295D01*
X323509D01*
X322977Y534451D01*
X321819Y534631D01*
X319601Y535392D01*
X317553Y536533D01*
X315737Y538016D01*
X314212Y539796D01*
X313023Y541816D01*
X312209Y544015D01*
X311796Y546323D01*
X311795Y547495D01*
Y552650D01*
X313030Y552947D01*
X313420Y552180D01*
X316566Y547851D01*
X320350Y544067D01*
X324680Y540921D01*
X329448Y538491D01*
X334538Y536838D01*
X339824Y536000D01*
X345176D01*
X350461Y536838D01*
X355551Y538491D01*
X360320Y540921D01*
X364649Y544067D01*
X368433Y547851D01*
X371579Y552180D01*
X374009Y556949D01*
X375662Y562039D01*
X376500Y567324D01*
Y572676D01*
X375662Y577962D01*
X374009Y583052D01*
X371579Y587820D01*
X368433Y592150D01*
X364649Y595934D01*
X360320Y599080D01*
X355551Y601509D01*
X350461Y603163D01*
X345176Y604000D01*
X339824D01*
X334538Y603163D01*
X329448Y601509D01*
X324680Y599080D01*
X320350Y595934D01*
X316566Y592150D01*
X313420Y587820D01*
X313030Y587054D01*
X311795Y587351D01*
X311795Y1085000D01*
X311795Y1120000D01*
Y1121301D01*
X312303Y1123852D01*
X313298Y1126255D01*
X314743Y1128418D01*
X316582Y1130257D01*
X318745Y1131702D01*
X321148Y1132697D01*
X323699Y1133205D01*
X325011Y1133205D01*
D02*
G37*
%LPC*%
G36*
X798300Y1074858D02*
Y1067000D01*
X806158D01*
X805656Y1068876D01*
X804334Y1071165D01*
X802465Y1073034D01*
X800175Y1074356D01*
X798300Y1074858D01*
D02*
G37*
G36*
X794300D02*
X792425Y1074356D01*
X790135Y1073034D01*
X788266Y1071165D01*
X786944Y1068876D01*
X786442Y1067000D01*
X794300D01*
Y1074858D01*
D02*
G37*
G36*
X747500D02*
Y1067000D01*
X755358D01*
X754856Y1068876D01*
X753534Y1071165D01*
X751665Y1073034D01*
X749376Y1074356D01*
X747500Y1074858D01*
D02*
G37*
G36*
X743500D02*
X741625Y1074356D01*
X739335Y1073034D01*
X737466Y1071165D01*
X736144Y1068876D01*
X735642Y1067000D01*
X743500D01*
Y1074858D01*
D02*
G37*
G36*
X620500D02*
Y1067000D01*
X628358D01*
X627856Y1068876D01*
X626534Y1071165D01*
X624665Y1073034D01*
X622375Y1074356D01*
X620500Y1074858D01*
D02*
G37*
G36*
X616500D02*
X614625Y1074356D01*
X612336Y1073034D01*
X610466Y1071165D01*
X609144Y1068876D01*
X608642Y1067000D01*
X616500D01*
Y1074858D01*
D02*
G37*
G36*
X544300D02*
Y1067000D01*
X552158D01*
X551656Y1068876D01*
X550334Y1071165D01*
X548465Y1073034D01*
X546175Y1074356D01*
X544300Y1074858D01*
D02*
G37*
G36*
X540300D02*
X538425Y1074356D01*
X536135Y1073034D01*
X534266Y1071165D01*
X532944Y1068876D01*
X532442Y1067000D01*
X540300D01*
Y1074858D01*
D02*
G37*
G36*
X442700D02*
Y1067000D01*
X450558D01*
X450056Y1068876D01*
X448734Y1071165D01*
X446865Y1073034D01*
X444576Y1074356D01*
X442700Y1074858D01*
D02*
G37*
G36*
X438700D02*
X436825Y1074356D01*
X434535Y1073034D01*
X432666Y1071165D01*
X431344Y1068876D01*
X430842Y1067000D01*
X438700D01*
Y1074858D01*
D02*
G37*
G36*
X391414Y1076500D02*
X388386D01*
X385461Y1075716D01*
X382839Y1074202D01*
X381706Y1073069D01*
X366488D01*
X364400Y1072794D01*
X362453Y1071988D01*
X360782Y1070706D01*
X359294Y1069218D01*
X358012Y1067547D01*
X357206Y1065601D01*
X357100Y1064798D01*
X355759Y1064343D01*
X353815Y1066287D01*
X350908Y1068230D01*
X347678Y1069568D01*
X344248Y1070250D01*
X340752D01*
X337323Y1069568D01*
X334092Y1068230D01*
X331185Y1066287D01*
X328713Y1063815D01*
X326770Y1060908D01*
X325432Y1057677D01*
X324750Y1054248D01*
Y1050752D01*
X325432Y1047322D01*
X326770Y1044092D01*
X328713Y1041185D01*
X331185Y1038712D01*
X334092Y1036770D01*
X337323Y1035432D01*
X340752Y1034750D01*
X344248D01*
X347678Y1035432D01*
X350908Y1036770D01*
X353815Y1038712D01*
X355661Y1040558D01*
X356931Y1040032D01*
Y1002500D01*
X357206Y1000411D01*
X358012Y998465D01*
X359294Y996794D01*
X406077Y950012D01*
X407748Y948730D01*
X409694Y947924D01*
X411783Y947649D01*
X493440D01*
X517764Y923324D01*
Y913365D01*
X516535Y912135D01*
X515005Y909486D01*
X514213Y906530D01*
Y903471D01*
X515005Y900515D01*
X516535Y897866D01*
X518699Y895702D01*
X521348Y894172D01*
X524304Y893381D01*
X526042D01*
X635197Y784225D01*
X635512Y783465D01*
X636794Y781794D01*
X638465Y780512D01*
X639225Y780197D01*
X747628Y671794D01*
X749299Y670512D01*
X751246Y669706D01*
X753334Y669431D01*
X846012D01*
X848101Y669706D01*
X850046Y670512D01*
X851718Y671794D01*
X912500Y732577D01*
X913783Y734249D01*
X914589Y736195D01*
X914864Y738283D01*
Y813453D01*
X969811Y868400D01*
X971527D01*
X974477Y869191D01*
X977123Y870718D01*
X978335Y871931D01*
X991664D01*
X992878Y870717D01*
X995523Y869190D01*
X998473Y868400D01*
X1001527D01*
X1004477Y869190D01*
X1007123Y870717D01*
X1009282Y872877D01*
X1010809Y875522D01*
X1011600Y878473D01*
Y881527D01*
X1010809Y884477D01*
X1009282Y887122D01*
X1007123Y889282D01*
X1004477Y890809D01*
X1001527Y891600D01*
X998473D01*
X995523Y890809D01*
X992878Y889282D01*
X991664Y888069D01*
X978336D01*
X977123Y889283D01*
X974477Y890810D01*
X971527Y891600D01*
X968473D01*
X965523Y890810D01*
X962878Y889283D01*
X960718Y887123D01*
X959191Y884478D01*
X958400Y881527D01*
Y879812D01*
X901089Y822501D01*
X899807Y820829D01*
X899001Y818883D01*
X898726Y816795D01*
Y741625D01*
X842670Y685569D01*
X756676D01*
X654328Y787917D01*
X763342Y896931D01*
X783476D01*
X784026Y896613D01*
X786315Y896000D01*
X788685D01*
X790974Y896613D01*
X793026Y897798D01*
X794702Y899474D01*
X795887Y901526D01*
X796500Y903815D01*
Y906185D01*
X795887Y908474D01*
X794702Y910526D01*
X793026Y912202D01*
X790974Y913387D01*
X788685Y914000D01*
X786315D01*
X784026Y913387D01*
X783476Y913069D01*
X760000D01*
X757912Y912794D01*
X755965Y911988D01*
X754294Y910706D01*
X642917Y799328D01*
X537453Y904792D01*
Y906530D01*
X536661Y909486D01*
X535132Y912135D01*
X533902Y913365D01*
Y926667D01*
X533627Y928755D01*
X532821Y930701D01*
X531539Y932372D01*
X502488Y961423D01*
X500817Y962706D01*
X498871Y963512D01*
X496782Y963787D01*
X415125D01*
X373069Y1005842D01*
Y1056931D01*
X381706D01*
X382839Y1055798D01*
X385461Y1054284D01*
X388386Y1053500D01*
X391414D01*
X394339Y1054284D01*
X396961Y1055798D01*
X399102Y1057939D01*
X400616Y1060561D01*
X401400Y1063486D01*
Y1066514D01*
X400616Y1069439D01*
X399102Y1072061D01*
X396961Y1074202D01*
X394339Y1075716D01*
X391414Y1076500D01*
D02*
G37*
G36*
X806158Y1063000D02*
X798300D01*
Y1055142D01*
X800175Y1055644D01*
X802465Y1056966D01*
X804334Y1058835D01*
X805656Y1061125D01*
X806158Y1063000D01*
D02*
G37*
G36*
X794300D02*
X786442D01*
X786944Y1061125D01*
X788266Y1058835D01*
X790135Y1056966D01*
X792425Y1055644D01*
X794300Y1055142D01*
Y1063000D01*
D02*
G37*
G36*
X755358D02*
X747500D01*
Y1055142D01*
X749376Y1055644D01*
X751665Y1056966D01*
X753534Y1058835D01*
X754856Y1061125D01*
X755358Y1063000D01*
D02*
G37*
G36*
X743500D02*
X735642D01*
X736144Y1061125D01*
X737466Y1058835D01*
X739335Y1056966D01*
X741625Y1055644D01*
X743500Y1055142D01*
Y1063000D01*
D02*
G37*
G36*
X628358D02*
X620500D01*
Y1055142D01*
X622375Y1055644D01*
X624665Y1056966D01*
X626534Y1058835D01*
X627856Y1061125D01*
X628358Y1063000D01*
D02*
G37*
G36*
X616500D02*
X608642D01*
X609144Y1061125D01*
X610466Y1058835D01*
X612336Y1056966D01*
X614625Y1055644D01*
X616500Y1055142D01*
Y1063000D01*
D02*
G37*
G36*
X552158D02*
X544300D01*
Y1055142D01*
X546175Y1055644D01*
X548465Y1056966D01*
X550334Y1058835D01*
X551656Y1061125D01*
X552158Y1063000D01*
D02*
G37*
G36*
X540300D02*
X532442D01*
X532944Y1061125D01*
X534266Y1058835D01*
X536135Y1056966D01*
X538425Y1055644D01*
X540300Y1055142D01*
Y1063000D01*
D02*
G37*
G36*
X450558D02*
X442700D01*
Y1055142D01*
X444576Y1055644D01*
X446865Y1056966D01*
X448734Y1058835D01*
X450056Y1061125D01*
X450558Y1063000D01*
D02*
G37*
G36*
X438700D02*
X430842D01*
X431344Y1061125D01*
X432666Y1058835D01*
X434535Y1056966D01*
X436825Y1055644D01*
X438700Y1055142D01*
Y1063000D01*
D02*
G37*
G36*
X874014Y1076500D02*
X870986D01*
X868061Y1075716D01*
X865439Y1074202D01*
X863298Y1072061D01*
X861784Y1069439D01*
X861000Y1066514D01*
Y1063486D01*
X861784Y1060561D01*
X863298Y1057939D01*
X865439Y1055798D01*
X868061Y1054284D01*
X870986Y1053500D01*
X874014D01*
X876939Y1054284D01*
X879561Y1055798D01*
X881702Y1057939D01*
X883216Y1060561D01*
X884000Y1063486D01*
Y1066514D01*
X883216Y1069439D01*
X881702Y1072061D01*
X879561Y1074202D01*
X876939Y1075716D01*
X874014Y1076500D01*
D02*
G37*
G36*
X848614D02*
X845586D01*
X842661Y1075716D01*
X840039Y1074202D01*
X837898Y1072061D01*
X836384Y1069439D01*
X835600Y1066514D01*
Y1063486D01*
X836384Y1060561D01*
X837898Y1057939D01*
X840039Y1055798D01*
X842661Y1054284D01*
X845586Y1053500D01*
X848614D01*
X851539Y1054284D01*
X854161Y1055798D01*
X856302Y1057939D01*
X857816Y1060561D01*
X858600Y1063486D01*
Y1066514D01*
X857816Y1069439D01*
X856302Y1072061D01*
X854161Y1074202D01*
X851539Y1075716D01*
X848614Y1076500D01*
D02*
G37*
G36*
X823214D02*
X820186D01*
X817261Y1075716D01*
X814639Y1074202D01*
X812498Y1072061D01*
X810984Y1069439D01*
X810200Y1066514D01*
Y1063486D01*
X810984Y1060561D01*
X812498Y1057939D01*
X814639Y1055798D01*
X817261Y1054284D01*
X820186Y1053500D01*
X823214D01*
X826139Y1054284D01*
X828761Y1055798D01*
X830902Y1057939D01*
X832416Y1060561D01*
X833200Y1063486D01*
Y1066514D01*
X832416Y1069439D01*
X830902Y1072061D01*
X828761Y1074202D01*
X826139Y1075716D01*
X823214Y1076500D01*
D02*
G37*
G36*
X772414D02*
X769386D01*
X766461Y1075716D01*
X763839Y1074202D01*
X761698Y1072061D01*
X760184Y1069439D01*
X759400Y1066514D01*
Y1063486D01*
X760184Y1060561D01*
X761698Y1057939D01*
X763839Y1055798D01*
X766461Y1054284D01*
X769386Y1053500D01*
X772414D01*
X775339Y1054284D01*
X777961Y1055798D01*
X780102Y1057939D01*
X781616Y1060561D01*
X782400Y1063486D01*
Y1066514D01*
X781616Y1069439D01*
X780102Y1072061D01*
X777961Y1074202D01*
X775339Y1075716D01*
X772414Y1076500D01*
D02*
G37*
G36*
X721614D02*
X718586D01*
X715661Y1075716D01*
X713039Y1074202D01*
X710898Y1072061D01*
X709384Y1069439D01*
X708600Y1066514D01*
Y1063486D01*
X709384Y1060561D01*
X710898Y1057939D01*
X713039Y1055798D01*
X715661Y1054284D01*
X718586Y1053500D01*
X721614D01*
X724539Y1054284D01*
X727161Y1055798D01*
X729302Y1057939D01*
X730816Y1060561D01*
X731600Y1063486D01*
Y1066514D01*
X730816Y1069439D01*
X729302Y1072061D01*
X727161Y1074202D01*
X724539Y1075716D01*
X721614Y1076500D01*
D02*
G37*
G36*
X696214D02*
X693186D01*
X690261Y1075716D01*
X687639Y1074202D01*
X685498Y1072061D01*
X683984Y1069439D01*
X683200Y1066514D01*
Y1063486D01*
X683984Y1060561D01*
X685498Y1057939D01*
X687639Y1055798D01*
X690261Y1054284D01*
X693186Y1053500D01*
X696214D01*
X699139Y1054284D01*
X701761Y1055798D01*
X703902Y1057939D01*
X705416Y1060561D01*
X706200Y1063486D01*
Y1066514D01*
X705416Y1069439D01*
X703902Y1072061D01*
X701761Y1074202D01*
X699139Y1075716D01*
X696214Y1076500D01*
D02*
G37*
G36*
X670814D02*
X667786D01*
X664861Y1075716D01*
X662239Y1074202D01*
X660098Y1072061D01*
X658584Y1069439D01*
X657800Y1066514D01*
Y1063486D01*
X658584Y1060561D01*
X660098Y1057939D01*
X662239Y1055798D01*
X664861Y1054284D01*
X667786Y1053500D01*
X670814D01*
X673739Y1054284D01*
X676361Y1055798D01*
X678502Y1057939D01*
X680016Y1060561D01*
X680800Y1063486D01*
Y1066514D01*
X680016Y1069439D01*
X678502Y1072061D01*
X676361Y1074202D01*
X673739Y1075716D01*
X670814Y1076500D01*
D02*
G37*
G36*
X645414D02*
X642386D01*
X639461Y1075716D01*
X636839Y1074202D01*
X634698Y1072061D01*
X633184Y1069439D01*
X632400Y1066514D01*
Y1063486D01*
X633184Y1060561D01*
X634698Y1057939D01*
X636839Y1055798D01*
X639461Y1054284D01*
X642386Y1053500D01*
X645414D01*
X648339Y1054284D01*
X650961Y1055798D01*
X653102Y1057939D01*
X654616Y1060561D01*
X655400Y1063486D01*
Y1066514D01*
X654616Y1069439D01*
X653102Y1072061D01*
X650961Y1074202D01*
X648339Y1075716D01*
X645414Y1076500D01*
D02*
G37*
G36*
X518414D02*
X515386D01*
X512461Y1075716D01*
X509839Y1074202D01*
X507698Y1072061D01*
X506184Y1069439D01*
X505400Y1066514D01*
Y1063486D01*
X506184Y1060561D01*
X507698Y1057939D01*
X509839Y1055798D01*
X512461Y1054284D01*
X515386Y1053500D01*
X518414D01*
X521339Y1054284D01*
X523961Y1055798D01*
X526102Y1057939D01*
X527616Y1060561D01*
X528400Y1063486D01*
Y1066514D01*
X527616Y1069439D01*
X526102Y1072061D01*
X523961Y1074202D01*
X521339Y1075716D01*
X518414Y1076500D01*
D02*
G37*
G36*
X467614D02*
X464586D01*
X461661Y1075716D01*
X459039Y1074202D01*
X456898Y1072061D01*
X455384Y1069439D01*
X454600Y1066514D01*
Y1063486D01*
X455384Y1060561D01*
X456898Y1057939D01*
X459039Y1055798D01*
X461661Y1054284D01*
X464586Y1053500D01*
X467614D01*
X470539Y1054284D01*
X473161Y1055798D01*
X475302Y1057939D01*
X476816Y1060561D01*
X477600Y1063486D01*
Y1066514D01*
X476816Y1069439D01*
X475302Y1072061D01*
X473161Y1074202D01*
X470539Y1075716D01*
X467614Y1076500D01*
D02*
G37*
G36*
X416814D02*
X413786D01*
X410861Y1075716D01*
X408239Y1074202D01*
X406098Y1072061D01*
X404584Y1069439D01*
X403800Y1066514D01*
Y1063486D01*
X404584Y1060561D01*
X406098Y1057939D01*
X408239Y1055798D01*
X410861Y1054284D01*
X413786Y1053500D01*
X416814D01*
X419739Y1054284D01*
X422361Y1055798D01*
X424502Y1057939D01*
X426016Y1060561D01*
X426800Y1063486D01*
Y1066514D01*
X426016Y1069439D01*
X424502Y1072061D01*
X422361Y1074202D01*
X419739Y1075716D01*
X416814Y1076500D01*
D02*
G37*
G36*
X922561Y1082540D02*
X922000D01*
Y1052000D01*
X952540D01*
Y1052561D01*
X951739Y1057620D01*
X950156Y1062491D01*
X947831Y1067055D01*
X944820Y1071199D01*
X941199Y1074821D01*
X937055Y1077831D01*
X932491Y1080156D01*
X927620Y1081739D01*
X922561Y1082540D01*
D02*
G37*
G36*
X918000D02*
X917439D01*
X912380Y1081739D01*
X907509Y1080156D01*
X902945Y1077831D01*
X898802Y1074821D01*
X895180Y1071199D01*
X892169Y1067055D01*
X889844Y1062491D01*
X888261Y1057620D01*
X887460Y1052561D01*
Y1052000D01*
X918000D01*
Y1082540D01*
D02*
G37*
G36*
X493014Y1076500D02*
X489986D01*
X487061Y1075716D01*
X484439Y1074202D01*
X482298Y1072061D01*
X480784Y1069439D01*
X480000Y1066514D01*
Y1063486D01*
X480784Y1060561D01*
X482298Y1057939D01*
X484439Y1055798D01*
X487061Y1054284D01*
X489986Y1053500D01*
X493014D01*
X494739Y1053962D01*
X497477Y1051225D01*
Y1049013D01*
X496377Y1048378D01*
X495376Y1048956D01*
X493500Y1049458D01*
Y1039600D01*
Y1029742D01*
X495376Y1030244D01*
X497665Y1031566D01*
X499403Y1033304D01*
X631505Y901201D01*
X633248Y900036D01*
X635305Y899627D01*
X639685D01*
X640702Y897866D01*
X642865Y895702D01*
X645515Y894172D01*
X648470Y893381D01*
X651530D01*
X654485Y894172D01*
X657135Y895702D01*
X659298Y897866D01*
X660828Y900515D01*
X661620Y903471D01*
Y906530D01*
X660828Y909486D01*
X659298Y912135D01*
X657135Y914299D01*
X654485Y915829D01*
X651530Y916620D01*
X648470D01*
X645515Y915829D01*
X642865Y914299D01*
X640702Y912135D01*
X639685Y910374D01*
X637531D01*
X520409Y1027496D01*
X520737Y1028723D01*
X521339Y1028884D01*
X523961Y1030398D01*
X526102Y1032539D01*
X527616Y1035161D01*
X528400Y1038086D01*
Y1041114D01*
X527616Y1044039D01*
X526102Y1046661D01*
X523961Y1048802D01*
X521339Y1050316D01*
X518414Y1051100D01*
X515386D01*
X512461Y1050316D01*
X509839Y1048802D01*
X509397Y1048360D01*
X508223Y1048846D01*
Y1053450D01*
X507814Y1055507D01*
X506649Y1057250D01*
X502453Y1061446D01*
X503000Y1063486D01*
Y1066514D01*
X502216Y1069439D01*
X500702Y1072061D01*
X498561Y1074202D01*
X495939Y1075716D01*
X493014Y1076500D01*
D02*
G37*
G36*
X874500Y1049458D02*
Y1041600D01*
X882358D01*
X881856Y1043475D01*
X880534Y1045765D01*
X878665Y1047634D01*
X876376Y1048956D01*
X874500Y1049458D01*
D02*
G37*
G36*
X870500D02*
X868625Y1048956D01*
X866336Y1047634D01*
X864466Y1045765D01*
X863144Y1043475D01*
X862642Y1041600D01*
X870500D01*
Y1049458D01*
D02*
G37*
G36*
X696700D02*
Y1041600D01*
X704558D01*
X704056Y1043475D01*
X702734Y1045765D01*
X700865Y1047634D01*
X698576Y1048956D01*
X696700Y1049458D01*
D02*
G37*
G36*
X692700D02*
X690825Y1048956D01*
X688536Y1047634D01*
X686666Y1045765D01*
X685344Y1043475D01*
X684842Y1041600D01*
X692700D01*
Y1049458D01*
D02*
G37*
G36*
X489500D02*
X487625Y1048956D01*
X485336Y1047634D01*
X483466Y1045765D01*
X482144Y1043475D01*
X481642Y1041600D01*
X489500D01*
Y1049458D01*
D02*
G37*
G36*
X882358Y1037600D02*
X874500D01*
Y1029742D01*
X876376Y1030244D01*
X878665Y1031566D01*
X880534Y1033435D01*
X881856Y1035725D01*
X882358Y1037600D01*
D02*
G37*
G36*
X870500D02*
X862642D01*
X863144Y1035725D01*
X864466Y1033435D01*
X866336Y1031566D01*
X868625Y1030244D01*
X870500Y1029742D01*
Y1037600D01*
D02*
G37*
G36*
X704558D02*
X696700D01*
Y1029742D01*
X698576Y1030244D01*
X700865Y1031566D01*
X702734Y1033435D01*
X704056Y1035725D01*
X704558Y1037600D01*
D02*
G37*
G36*
X692700D02*
X684842D01*
X685344Y1035725D01*
X686666Y1033435D01*
X688536Y1031566D01*
X690825Y1030244D01*
X692700Y1029742D01*
Y1037600D01*
D02*
G37*
G36*
X489500D02*
X481642D01*
X482144Y1035725D01*
X483466Y1033435D01*
X485336Y1031566D01*
X487625Y1030244D01*
X489500Y1029742D01*
Y1037600D01*
D02*
G37*
G36*
X848614Y1051100D02*
X845586D01*
X842661Y1050316D01*
X840039Y1048802D01*
X837898Y1046661D01*
X836384Y1044039D01*
X835600Y1041114D01*
Y1038086D01*
X836384Y1035161D01*
X837898Y1032539D01*
X840039Y1030398D01*
X842661Y1028884D01*
X845586Y1028100D01*
X848614D01*
X851539Y1028884D01*
X854161Y1030398D01*
X856302Y1032539D01*
X857816Y1035161D01*
X858600Y1038086D01*
Y1041114D01*
X857816Y1044039D01*
X856302Y1046661D01*
X854161Y1048802D01*
X851539Y1050316D01*
X848614Y1051100D01*
D02*
G37*
G36*
X823214D02*
X820186D01*
X817261Y1050316D01*
X814639Y1048802D01*
X812498Y1046661D01*
X810984Y1044039D01*
X810200Y1041114D01*
Y1038086D01*
X810984Y1035161D01*
X812498Y1032539D01*
X814639Y1030398D01*
X817261Y1028884D01*
X820186Y1028100D01*
X823214D01*
X826139Y1028884D01*
X828761Y1030398D01*
X830902Y1032539D01*
X832416Y1035161D01*
X833200Y1038086D01*
Y1041114D01*
X832416Y1044039D01*
X830902Y1046661D01*
X828761Y1048802D01*
X826139Y1050316D01*
X823214Y1051100D01*
D02*
G37*
G36*
X721614D02*
X718586D01*
X715661Y1050316D01*
X713039Y1048802D01*
X710898Y1046661D01*
X709384Y1044039D01*
X708600Y1041114D01*
Y1038086D01*
X709384Y1035161D01*
X710898Y1032539D01*
X713039Y1030398D01*
X715661Y1028884D01*
X718586Y1028100D01*
X721614D01*
X724539Y1028884D01*
X727161Y1030398D01*
X729302Y1032539D01*
X730816Y1035161D01*
X731600Y1038086D01*
Y1041114D01*
X730816Y1044039D01*
X729302Y1046661D01*
X727161Y1048802D01*
X724539Y1050316D01*
X721614Y1051100D01*
D02*
G37*
G36*
X670814D02*
X667786D01*
X664861Y1050316D01*
X662239Y1048802D01*
X660098Y1046661D01*
X658584Y1044039D01*
X657800Y1041114D01*
Y1038086D01*
X658584Y1035161D01*
X660098Y1032539D01*
X662239Y1030398D01*
X664861Y1028884D01*
X667786Y1028100D01*
X670814D01*
X673739Y1028884D01*
X676361Y1030398D01*
X678502Y1032539D01*
X680016Y1035161D01*
X680800Y1038086D01*
Y1041114D01*
X680016Y1044039D01*
X678502Y1046661D01*
X676361Y1048802D01*
X673739Y1050316D01*
X670814Y1051100D01*
D02*
G37*
G36*
X645414D02*
X642386D01*
X639461Y1050316D01*
X636839Y1048802D01*
X634698Y1046661D01*
X633184Y1044039D01*
X632400Y1041114D01*
Y1038086D01*
X633184Y1035161D01*
X634698Y1032539D01*
X636839Y1030398D01*
X639461Y1028884D01*
X642386Y1028100D01*
X645414D01*
X648339Y1028884D01*
X650961Y1030398D01*
X653102Y1032539D01*
X654616Y1035161D01*
X655400Y1038086D01*
Y1041114D01*
X654616Y1044039D01*
X653102Y1046661D01*
X650961Y1048802D01*
X648339Y1050316D01*
X645414Y1051100D01*
D02*
G37*
G36*
X620014D02*
X616986D01*
X614061Y1050316D01*
X611439Y1048802D01*
X609298Y1046661D01*
X607784Y1044039D01*
X607000Y1041114D01*
Y1038086D01*
X607784Y1035161D01*
X609298Y1032539D01*
X611439Y1030398D01*
X614061Y1028884D01*
X616986Y1028100D01*
X620014D01*
X622939Y1028884D01*
X625561Y1030398D01*
X627702Y1032539D01*
X629216Y1035161D01*
X630000Y1038086D01*
Y1041114D01*
X629216Y1044039D01*
X627702Y1046661D01*
X625561Y1048802D01*
X622939Y1050316D01*
X620014Y1051100D01*
D02*
G37*
G36*
X569214D02*
X566186D01*
X563261Y1050316D01*
X560639Y1048802D01*
X558498Y1046661D01*
X556984Y1044039D01*
X556200Y1041114D01*
Y1038086D01*
X556984Y1035161D01*
X558498Y1032539D01*
X560639Y1030398D01*
X563261Y1028884D01*
X566186Y1028100D01*
X569214D01*
X572139Y1028884D01*
X574761Y1030398D01*
X576902Y1032539D01*
X578416Y1035161D01*
X579200Y1038086D01*
Y1041114D01*
X578416Y1044039D01*
X576902Y1046661D01*
X574761Y1048802D01*
X572139Y1050316D01*
X569214Y1051100D01*
D02*
G37*
G36*
X543814D02*
X540786D01*
X537861Y1050316D01*
X535239Y1048802D01*
X533098Y1046661D01*
X531584Y1044039D01*
X530800Y1041114D01*
Y1038086D01*
X531584Y1035161D01*
X533098Y1032539D01*
X535239Y1030398D01*
X537861Y1028884D01*
X540786Y1028100D01*
X543814D01*
X546739Y1028884D01*
X549361Y1030398D01*
X551502Y1032539D01*
X553016Y1035161D01*
X553800Y1038086D01*
Y1041114D01*
X553016Y1044039D01*
X551502Y1046661D01*
X549361Y1048802D01*
X546739Y1050316D01*
X543814Y1051100D01*
D02*
G37*
G36*
X467614D02*
X464586D01*
X461661Y1050316D01*
X459039Y1048802D01*
X456898Y1046661D01*
X455384Y1044039D01*
X454600Y1041114D01*
Y1038086D01*
X455384Y1035161D01*
X456898Y1032539D01*
X459039Y1030398D01*
X461661Y1028884D01*
X464586Y1028100D01*
X467614D01*
X470539Y1028884D01*
X473161Y1030398D01*
X475302Y1032539D01*
X476816Y1035161D01*
X477600Y1038086D01*
Y1041114D01*
X476816Y1044039D01*
X475302Y1046661D01*
X473161Y1048802D01*
X470539Y1050316D01*
X467614Y1051100D01*
D02*
G37*
G36*
X442214D02*
X439186D01*
X436261Y1050316D01*
X433639Y1048802D01*
X431498Y1046661D01*
X429984Y1044039D01*
X429200Y1041114D01*
Y1038086D01*
X429984Y1035161D01*
X431498Y1032539D01*
X433639Y1030398D01*
X436261Y1028884D01*
X439186Y1028100D01*
X442214D01*
X445139Y1028884D01*
X447761Y1030398D01*
X449902Y1032539D01*
X451416Y1035161D01*
X452200Y1038086D01*
Y1041114D01*
X451416Y1044039D01*
X449902Y1046661D01*
X447761Y1048802D01*
X445139Y1050316D01*
X442214Y1051100D01*
D02*
G37*
G36*
X416814D02*
X413786D01*
X410861Y1050316D01*
X408239Y1048802D01*
X406098Y1046661D01*
X404584Y1044039D01*
X403800Y1041114D01*
Y1038086D01*
X404584Y1035161D01*
X406098Y1032539D01*
X408239Y1030398D01*
X410861Y1028884D01*
X413786Y1028100D01*
X416814D01*
X419739Y1028884D01*
X422361Y1030398D01*
X424502Y1032539D01*
X426016Y1035161D01*
X426800Y1038086D01*
Y1041114D01*
X426016Y1044039D01*
X424502Y1046661D01*
X422361Y1048802D01*
X419739Y1050316D01*
X416814Y1051100D01*
D02*
G37*
G36*
X401400D02*
X378400D01*
Y1028100D01*
X401400D01*
Y1051100D01*
D02*
G37*
G36*
X952540Y1048000D02*
X922000D01*
Y1017460D01*
X922561D01*
X927620Y1018262D01*
X932491Y1019845D01*
X937055Y1022170D01*
X941199Y1025180D01*
X944820Y1028802D01*
X947831Y1032946D01*
X950156Y1037509D01*
X951739Y1042381D01*
X952540Y1047439D01*
Y1048000D01*
D02*
G37*
G36*
X918000D02*
X887460D01*
Y1047439D01*
X888261Y1042381D01*
X889844Y1037509D01*
X892169Y1032946D01*
X895180Y1028802D01*
X898802Y1025180D01*
X902945Y1022170D01*
X907509Y1019845D01*
X912380Y1018262D01*
X917439Y1017460D01*
X918000D01*
Y1048000D01*
D02*
G37*
G36*
X947500Y1127873D02*
X607500D01*
X605444Y1127464D01*
X603700Y1126300D01*
X563700Y1086300D01*
X562536Y1084557D01*
X562127Y1082500D01*
Y1075061D01*
X560639Y1074202D01*
X558498Y1072061D01*
X556984Y1069439D01*
X556200Y1066514D01*
Y1063486D01*
X556984Y1060561D01*
X558498Y1057939D01*
X560639Y1055798D01*
X563261Y1054284D01*
X566186Y1053500D01*
X569214D01*
X572139Y1054284D01*
X574761Y1055798D01*
X576902Y1057939D01*
X578416Y1060561D01*
X579200Y1063486D01*
Y1066514D01*
X578416Y1069439D01*
X576902Y1072061D01*
X574761Y1074202D01*
X572873Y1075293D01*
Y1080275D01*
X609726Y1117127D01*
X945275D01*
X994627Y1067774D01*
Y981600D01*
X988400D01*
Y960414D01*
X987280Y959815D01*
X987057Y959964D01*
X985000Y960373D01*
X978574D01*
X978048Y961643D01*
X979282Y962878D01*
X980809Y965523D01*
X981600Y968473D01*
Y971527D01*
X980809Y974477D01*
X979282Y977123D01*
X977123Y979282D01*
X975373Y980292D01*
Y1065000D01*
X974964Y1067056D01*
X973800Y1068800D01*
X933800Y1108800D01*
X932056Y1109964D01*
X930000Y1110373D01*
X622500D01*
X620444Y1109964D01*
X618701Y1108800D01*
X589100Y1079199D01*
X587936Y1077456D01*
X587527Y1075400D01*
Y1075061D01*
X586039Y1074202D01*
X583898Y1072061D01*
X582384Y1069439D01*
X581600Y1066514D01*
Y1063486D01*
X582384Y1060561D01*
X583898Y1057939D01*
X586039Y1055798D01*
X588661Y1054284D01*
X591586Y1053500D01*
X594614D01*
X597539Y1054284D01*
X600161Y1055798D01*
X602302Y1057939D01*
X603816Y1060561D01*
X604600Y1063486D01*
Y1066514D01*
X603816Y1069439D01*
X602302Y1072061D01*
X600161Y1074202D01*
X600061Y1074962D01*
X624726Y1099627D01*
X927775D01*
X964627Y1062775D01*
Y980292D01*
X962878Y979282D01*
X960718Y977123D01*
X959191Y974477D01*
X958400Y971527D01*
Y968473D01*
X959191Y965523D01*
X960718Y962878D01*
X961952Y961643D01*
X961426Y960373D01*
X857526D01*
X788440Y1029459D01*
X789239Y1030398D01*
X791861Y1028884D01*
X794786Y1028100D01*
X797814D01*
X800739Y1028884D01*
X803361Y1030398D01*
X805502Y1032539D01*
X807016Y1035161D01*
X807800Y1038086D01*
Y1041114D01*
X807016Y1044039D01*
X805502Y1046661D01*
X803361Y1048802D01*
X800739Y1050316D01*
X797814Y1051100D01*
X794786D01*
X791861Y1050316D01*
X789239Y1048802D01*
X787098Y1046661D01*
X785584Y1044039D01*
X784800Y1041114D01*
Y1038086D01*
X785584Y1035161D01*
X787098Y1032539D01*
X786159Y1031740D01*
X781853Y1036046D01*
X782400Y1038086D01*
Y1041114D01*
X781616Y1044039D01*
X780102Y1046661D01*
X777961Y1048802D01*
X775339Y1050316D01*
X772414Y1051100D01*
X769386D01*
X766461Y1050316D01*
X763839Y1048802D01*
X761698Y1046661D01*
X760184Y1044039D01*
X759400Y1041114D01*
Y1038086D01*
X760184Y1035161D01*
X761698Y1032539D01*
X760759Y1031740D01*
X756453Y1036046D01*
X757000Y1038086D01*
Y1041114D01*
X756216Y1044039D01*
X754702Y1046661D01*
X752561Y1048802D01*
X749939Y1050316D01*
X747014Y1051100D01*
X743986D01*
X741061Y1050316D01*
X738439Y1048802D01*
X736298Y1046661D01*
X734784Y1044039D01*
X734000Y1041114D01*
Y1038086D01*
X734784Y1035161D01*
X736298Y1032539D01*
X738439Y1030398D01*
X741061Y1028884D01*
X743986Y1028100D01*
X747014D01*
X748739Y1028562D01*
X841101Y936201D01*
X842844Y935036D01*
X844900Y934627D01*
X959708D01*
X960718Y932878D01*
X962878Y930718D01*
X965523Y929191D01*
X968473Y928400D01*
X971527D01*
X974477Y929191D01*
X977123Y930718D01*
X979282Y932878D01*
X980809Y935523D01*
X981600Y938473D01*
Y941527D01*
X980809Y944478D01*
X979282Y947123D01*
X978048Y948357D01*
X978575Y949627D01*
X982775D01*
X988923Y943478D01*
X988400Y941527D01*
Y938473D01*
X989191Y935523D01*
X990718Y932878D01*
X992878Y930718D01*
X995523Y929191D01*
X998473Y928400D01*
X1001527D01*
X1004477Y929191D01*
X1007123Y930718D01*
X1009282Y932878D01*
X1010809Y935523D01*
X1011600Y938473D01*
Y941527D01*
X1010809Y944478D01*
X1009282Y947123D01*
X1007123Y949283D01*
X1004477Y950810D01*
X1001527Y951600D01*
X998473D01*
X996522Y951077D01*
X990372Y957227D01*
X990858Y958400D01*
X1011600D01*
Y981600D01*
X1005373D01*
Y1070000D01*
X1004964Y1072056D01*
X1003800Y1073799D01*
X1003799Y1073799D01*
X951300Y1126300D01*
X949557Y1127464D01*
X947500Y1127873D01*
D02*
G37*
G36*
X1044871Y967400D02*
X1041128D01*
X1037458Y966670D01*
X1034000Y965238D01*
X1030888Y963158D01*
X1028242Y960512D01*
X1026162Y957400D01*
X1024730Y953942D01*
X1024000Y950271D01*
Y946529D01*
X1024730Y942858D01*
X1026162Y939400D01*
X1028242Y936288D01*
X1030888Y933642D01*
X1034000Y931562D01*
X1037458Y930130D01*
X1041128Y929400D01*
X1044871D01*
X1048542Y930130D01*
X1052000Y931562D01*
X1055111Y933642D01*
X1057758Y936288D01*
X1059837Y939400D01*
X1061270Y942858D01*
X1062000Y946529D01*
Y950271D01*
X1061270Y953942D01*
X1059837Y957400D01*
X1057758Y960512D01*
X1055111Y963158D01*
X1052000Y965238D01*
X1048542Y966670D01*
X1044871Y967400D01*
D02*
G37*
G36*
X503667Y914983D02*
Y907001D01*
X511649D01*
X511134Y908922D01*
X509797Y911239D01*
X507905Y913130D01*
X505588Y914468D01*
X503667Y914983D01*
D02*
G37*
G36*
X674250D02*
X672328Y914468D01*
X670012Y913130D01*
X668120Y911239D01*
X666783Y908922D01*
X666268Y907001D01*
X674250D01*
Y914983D01*
D02*
G37*
G36*
X499667D02*
X497745Y914468D01*
X495428Y913130D01*
X493537Y911239D01*
X492199Y908922D01*
X491684Y907001D01*
X499667D01*
Y914983D01*
D02*
G37*
G36*
X807000Y910709D02*
Y907000D01*
X810709D01*
X810120Y908421D01*
X808421Y910120D01*
X807000Y910709D01*
D02*
G37*
G36*
X803000D02*
X801579Y910120D01*
X799880Y908421D01*
X799291Y907000D01*
X803000D01*
Y910709D01*
D02*
G37*
G36*
X810709Y903000D02*
X807000D01*
Y899291D01*
X808421Y899880D01*
X810120Y901579D01*
X810709Y903000D01*
D02*
G37*
G36*
X803000D02*
X799291D01*
X799880Y901579D01*
X801579Y899880D01*
X803000Y899291D01*
Y903000D01*
D02*
G37*
G36*
X1001527Y921600D02*
X998473D01*
X995523Y920810D01*
X992878Y919283D01*
X990718Y917123D01*
X989191Y914478D01*
X988400Y911527D01*
Y908473D01*
X989191Y905523D01*
X990718Y902878D01*
X992878Y900718D01*
X995523Y899191D01*
X998473Y898400D01*
X1001527D01*
X1004477Y899191D01*
X1007123Y900718D01*
X1009282Y902878D01*
X1010809Y905523D01*
X1011600Y908473D01*
Y911527D01*
X1010809Y914478D01*
X1009282Y917123D01*
X1007123Y919283D01*
X1004477Y920810D01*
X1001527Y921600D01*
D02*
G37*
G36*
X594614Y1051100D02*
X591586D01*
X588661Y1050316D01*
X586039Y1048802D01*
X583898Y1046661D01*
X582384Y1044039D01*
X581600Y1041114D01*
Y1038086D01*
X582384Y1035161D01*
X583898Y1032539D01*
X586039Y1030398D01*
X588444Y1029009D01*
Y1010000D01*
X588667Y1008303D01*
X589322Y1006722D01*
X590364Y1005364D01*
X679863Y915866D01*
X679205Y914727D01*
X678250Y914983D01*
Y907001D01*
X686233D01*
X685977Y907956D01*
X687115Y908613D01*
X690880Y904848D01*
Y903471D01*
X691672Y900515D01*
X693202Y897866D01*
X695365Y895702D01*
X698015Y894172D01*
X700970Y893381D01*
X704030D01*
X706985Y894172D01*
X709635Y895702D01*
X711798Y897866D01*
X712132Y898444D01*
X725001D01*
X726697Y898668D01*
X728279Y899323D01*
X729636Y900365D01*
X747716Y918444D01*
X817284D01*
X830364Y905364D01*
X831722Y904323D01*
X833303Y903668D01*
X835000Y903444D01*
X960391D01*
X960718Y902878D01*
X962878Y900718D01*
X965523Y899191D01*
X968473Y898400D01*
X971527D01*
X974477Y899191D01*
X977123Y900718D01*
X979282Y902878D01*
X980809Y905523D01*
X981600Y908473D01*
Y911527D01*
X980809Y914478D01*
X979282Y917123D01*
X977123Y919283D01*
X974477Y920810D01*
X971527Y921600D01*
X968473D01*
X965523Y920810D01*
X962878Y919283D01*
X960718Y917123D01*
X960391Y916556D01*
X837715D01*
X824636Y929636D01*
X823278Y930678D01*
X821697Y931333D01*
X820000Y931556D01*
X745000D01*
X743303Y931333D01*
X741722Y930678D01*
X740364Y929636D01*
X722285Y911556D01*
X712132D01*
X711798Y912135D01*
X709635Y914299D01*
X706985Y915829D01*
X704030Y916620D01*
X700970D01*
X698353Y915919D01*
X601556Y1012716D01*
Y1031671D01*
X601542Y1031779D01*
X602302Y1032539D01*
X603816Y1035161D01*
X604600Y1038086D01*
Y1041114D01*
X603816Y1044039D01*
X602302Y1046661D01*
X600161Y1048802D01*
X597539Y1050316D01*
X594614Y1051100D01*
D02*
G37*
G36*
X511649Y903000D02*
X503667D01*
Y895018D01*
X505588Y895533D01*
X507905Y896870D01*
X509797Y898762D01*
X511134Y901079D01*
X511649Y903000D01*
D02*
G37*
G36*
X686233D02*
X678250D01*
Y895018D01*
X680172Y895533D01*
X682488Y896870D01*
X684380Y898762D01*
X685718Y901079D01*
X686233Y903000D01*
D02*
G37*
G36*
X674250D02*
X666268D01*
X666783Y901079D01*
X668120Y898762D01*
X670012Y896870D01*
X672328Y895533D01*
X674250Y895018D01*
Y903000D01*
D02*
G37*
G36*
X499667D02*
X491684D01*
X492199Y901079D01*
X493537Y898762D01*
X495428Y896870D01*
X497745Y895533D01*
X499667Y895018D01*
Y903000D01*
D02*
G37*
G36*
X477363Y916620D02*
X474304D01*
X471348Y915829D01*
X468699Y914299D01*
X466535Y912135D01*
X465005Y909486D01*
X464213Y906530D01*
Y903471D01*
X465005Y900515D01*
X466535Y897866D01*
X468699Y895702D01*
X471348Y894172D01*
X474304Y893381D01*
X477363D01*
X480319Y894172D01*
X482968Y895702D01*
X485132Y897866D01*
X486662Y900515D01*
X487453Y903471D01*
Y906530D01*
X486662Y909486D01*
X485132Y912135D01*
X482968Y914299D01*
X480319Y915829D01*
X477363Y916620D01*
D02*
G37*
G36*
X451530D02*
X448470D01*
X445515Y915829D01*
X442865Y914299D01*
X440702Y912135D01*
X439172Y909486D01*
X438380Y906530D01*
Y903471D01*
X439172Y900515D01*
X440702Y897866D01*
X442865Y895702D01*
X445515Y894172D01*
X448470Y893381D01*
X451530D01*
X454485Y894172D01*
X457135Y895702D01*
X459298Y897866D01*
X460828Y900515D01*
X461620Y903471D01*
Y906530D01*
X460828Y909486D01*
X459298Y912135D01*
X457135Y914299D01*
X454485Y915829D01*
X451530Y916620D01*
D02*
G37*
G36*
X867000Y860709D02*
Y857000D01*
X870709D01*
X870120Y858421D01*
X868421Y860120D01*
X867000Y860709D01*
D02*
G37*
G36*
X863000D02*
X861579Y860120D01*
X859880Y858421D01*
X859291Y857000D01*
X863000D01*
Y860709D01*
D02*
G37*
G36*
X852000D02*
Y857000D01*
X855709D01*
X855120Y858421D01*
X853421Y860120D01*
X852000Y860709D01*
D02*
G37*
G36*
X848000D02*
X846579Y860120D01*
X844880Y858421D01*
X844291Y857000D01*
X848000D01*
Y860709D01*
D02*
G37*
G36*
X870709Y853000D02*
X867000D01*
Y849291D01*
X868421Y849880D01*
X870120Y851579D01*
X870709Y853000D01*
D02*
G37*
G36*
X863000D02*
X859291D01*
X859880Y851579D01*
X861579Y849880D01*
X863000Y849291D01*
Y853000D01*
D02*
G37*
G36*
X768000Y848840D02*
X763860D01*
Y844500D01*
X768000D01*
Y848840D01*
D02*
G37*
G36*
X855709Y853000D02*
X844291D01*
X844880Y851579D01*
X846548Y849910D01*
X846542Y849742D01*
X846252Y848640D01*
X844500D01*
Y844300D01*
X848640D01*
Y847756D01*
X848761Y848674D01*
X849778Y848960D01*
X851201D01*
X853421Y849880D01*
X855120Y851579D01*
X855709Y853000D01*
D02*
G37*
G36*
X791140Y848840D02*
Y848840D01*
X787000D01*
Y842500D01*
X783000D01*
Y848840D01*
X778860D01*
Y840500D01*
X776140D01*
Y848840D01*
X772000D01*
Y842500D01*
X770000D01*
Y840500D01*
X763860D01*
Y840500D01*
X762400D01*
Y829056D01*
X747500D01*
X745803Y828833D01*
X744222Y828178D01*
X742864Y827136D01*
X727864Y812136D01*
X726822Y810778D01*
X726167Y809197D01*
X725944Y807500D01*
Y794500D01*
X722500D01*
Y774500D01*
X742500D01*
Y779281D01*
X743770Y779621D01*
X744498Y778360D01*
X746360Y776498D01*
X748640Y775182D01*
X751183Y774500D01*
X753816D01*
X756360Y775182D01*
X758640Y776498D01*
X760502Y778360D01*
X761818Y780640D01*
X762500Y783184D01*
Y785229D01*
X787876Y810605D01*
X788995Y809988D01*
X788668Y809197D01*
X788444Y807500D01*
Y795000D01*
X785000D01*
Y775000D01*
X805000D01*
Y779781D01*
X806270Y780121D01*
X806998Y778860D01*
X808860Y776998D01*
X811140Y775682D01*
X813684Y775000D01*
X816317D01*
X818860Y775682D01*
X821140Y776998D01*
X823002Y778860D01*
X824319Y781140D01*
X825000Y783684D01*
Y786317D01*
X824319Y788860D01*
X823002Y791140D01*
X821556Y792586D01*
Y807500D01*
X821333Y809197D01*
X820678Y810778D01*
X819636Y812136D01*
X819056Y812716D01*
Y818418D01*
X819926Y818864D01*
X820424Y818868D01*
X820944Y818372D01*
Y815000D01*
X821167Y813303D01*
X821822Y811722D01*
X822864Y810364D01*
X846962Y786266D01*
X847092Y785952D01*
X847500Y785420D01*
Y774500D01*
X867500D01*
Y779280D01*
X868770Y779621D01*
X869498Y778360D01*
X871360Y776498D01*
X873640Y775181D01*
X876183Y774500D01*
X878816D01*
X881360Y775181D01*
X883640Y776498D01*
X885502Y778360D01*
X886818Y780640D01*
X887500Y783183D01*
Y785816D01*
X886818Y788360D01*
X885502Y790640D01*
X884056Y792086D01*
Y810000D01*
X883833Y811697D01*
X883178Y813278D01*
X882136Y814636D01*
X869636Y827136D01*
X868278Y828178D01*
X866697Y828833D01*
X865000Y829056D01*
X850100D01*
Y840300D01*
X848640D01*
Y840301D01*
X842500D01*
Y842300D01*
X840500D01*
Y848640D01*
X836360D01*
Y840300D01*
X833640D01*
Y848640D01*
X829500D01*
Y842300D01*
X825500D01*
Y848640D01*
X821360D01*
Y840523D01*
X820100Y840500D01*
Y840500D01*
X818640D01*
Y848840D01*
X814500D01*
Y842500D01*
X810500D01*
Y848840D01*
X806360D01*
Y840525D01*
X805100Y840500D01*
X805100Y840500D01*
X805100Y840500D01*
X803640D01*
Y848840D01*
X799500D01*
Y842500D01*
X795500D01*
Y848840D01*
X791360D01*
Y848840D01*
X791140D01*
D02*
G37*
G36*
X971527Y861600D02*
X968473D01*
X965523Y860810D01*
X962878Y859283D01*
X960718Y857123D01*
X959191Y854478D01*
X958400Y851527D01*
Y848473D01*
X959191Y845523D01*
X960718Y842878D01*
X962878Y840718D01*
X965523Y839191D01*
X968473Y838400D01*
X971527D01*
X974477Y839191D01*
X977123Y840718D01*
X979282Y842878D01*
X980809Y845523D01*
X981600Y848473D01*
Y851527D01*
X980809Y854478D01*
X979282Y857123D01*
X977123Y859283D01*
X974477Y860810D01*
X971527Y861600D01*
D02*
G37*
G36*
X1001527Y861600D02*
X998473D01*
X995523Y860809D01*
X992878Y859282D01*
X990718Y857122D01*
X989191Y854477D01*
X988400Y851527D01*
Y848473D01*
X989191Y845522D01*
X990718Y842877D01*
X992878Y840717D01*
X995523Y839190D01*
X998473Y838400D01*
X1001527D01*
X1004477Y839190D01*
X1007123Y840717D01*
X1009282Y842877D01*
X1010809Y845522D01*
X1011600Y848473D01*
Y851527D01*
X1010809Y854477D01*
X1009282Y857122D01*
X1007123Y859282D01*
X1004477Y860809D01*
X1001527Y861600D01*
D02*
G37*
G36*
X1044871Y860600D02*
X1041128D01*
X1037458Y859870D01*
X1034000Y858438D01*
X1030888Y856358D01*
X1028242Y853712D01*
X1026162Y850600D01*
X1024730Y847142D01*
X1024000Y843471D01*
Y839729D01*
X1024730Y836058D01*
X1026162Y832600D01*
X1028242Y829488D01*
X1030888Y826842D01*
X1034000Y824762D01*
X1037458Y823330D01*
X1041128Y822600D01*
X1044871D01*
X1048542Y823330D01*
X1052000Y824762D01*
X1055111Y826842D01*
X1057758Y829488D01*
X1059837Y832600D01*
X1061270Y836058D01*
X1062000Y839729D01*
Y843471D01*
X1061270Y847142D01*
X1059837Y850600D01*
X1057758Y853712D01*
X1055111Y856358D01*
X1052000Y858438D01*
X1048542Y859870D01*
X1044871Y860600D01*
D02*
G37*
G36*
X971527Y831600D02*
X968473D01*
X965523Y830810D01*
X962878Y829283D01*
X960718Y827123D01*
X959191Y824478D01*
X958400Y821528D01*
Y818473D01*
X959191Y815523D01*
X960718Y812878D01*
X962878Y810718D01*
X965523Y809191D01*
X968473Y808400D01*
X971527D01*
X974477Y809191D01*
X977123Y810718D01*
X979282Y812878D01*
X980809Y815523D01*
X981600Y818473D01*
Y821528D01*
X980809Y824478D01*
X979282Y827123D01*
X977123Y829283D01*
X974477Y830810D01*
X971527Y831600D01*
D02*
G37*
G36*
X1001527Y831600D02*
X998473D01*
X995523Y830809D01*
X992878Y829282D01*
X990718Y827122D01*
X989191Y824477D01*
X988400Y821527D01*
Y818473D01*
X989191Y815522D01*
X990718Y812877D01*
X992878Y810718D01*
X995523Y809190D01*
X998473Y808400D01*
X1001527D01*
X1004477Y809190D01*
X1007123Y810718D01*
X1009282Y812877D01*
X1010809Y815522D01*
X1011600Y818473D01*
Y821527D01*
X1010809Y824477D01*
X1009282Y827122D01*
X1007123Y829282D01*
X1004477Y830809D01*
X1001527Y831600D01*
D02*
G37*
G36*
X607000Y750709D02*
Y747000D01*
X610709D01*
X610121Y748421D01*
X608421Y750120D01*
X607000Y750709D01*
D02*
G37*
G36*
X603000D02*
X601579Y750120D01*
X599879Y748421D01*
X599291Y747000D01*
X603000D01*
Y750709D01*
D02*
G37*
G36*
X559500Y748209D02*
Y744500D01*
X563209D01*
X562621Y745921D01*
X560921Y747620D01*
X559500Y748209D01*
D02*
G37*
G36*
X555500D02*
X554079Y747620D01*
X552379Y745921D01*
X551791Y744500D01*
X555500D01*
Y748209D01*
D02*
G37*
G36*
X507000D02*
Y744500D01*
X510709D01*
X510121Y745921D01*
X508421Y747620D01*
X507000Y748209D01*
D02*
G37*
G36*
X503000D02*
X501579Y747620D01*
X499879Y745921D01*
X499291Y744500D01*
X503000D01*
Y748209D01*
D02*
G37*
G36*
X610709Y743000D02*
X607000D01*
Y739291D01*
X608421Y739880D01*
X610121Y741579D01*
X610709Y743000D01*
D02*
G37*
G36*
X603000D02*
X599291D01*
X599879Y741579D01*
X601579Y739880D01*
X603000Y739291D01*
Y743000D01*
D02*
G37*
G36*
X563209Y740500D02*
X559500D01*
Y736791D01*
X560921Y737380D01*
X562621Y739079D01*
X563209Y740500D01*
D02*
G37*
G36*
X555500D02*
X551791D01*
X552379Y739079D01*
X554079Y737380D01*
X555500Y736791D01*
Y740500D01*
D02*
G37*
G36*
X510709D02*
X507000D01*
Y736791D01*
X508421Y737380D01*
X510121Y739079D01*
X510709Y740500D01*
D02*
G37*
G36*
X503000D02*
X499291D01*
X499879Y739079D01*
X501579Y737380D01*
X503000Y736791D01*
Y740500D01*
D02*
G37*
G36*
X919500Y730709D02*
Y727000D01*
X923209D01*
X922620Y728421D01*
X920921Y730120D01*
X919500Y730709D01*
D02*
G37*
G36*
X915500D02*
X914079Y730120D01*
X912380Y728421D01*
X911791Y727000D01*
X915500D01*
Y730709D01*
D02*
G37*
G36*
X923209Y723000D02*
X919500D01*
Y719291D01*
X920921Y719880D01*
X922620Y721579D01*
X923209Y723000D01*
D02*
G37*
G36*
X915500D02*
X911791D01*
X912380Y721579D01*
X914079Y719880D01*
X915500Y719291D01*
Y723000D01*
D02*
G37*
G36*
X974500Y666168D02*
Y659500D01*
X981168D01*
X980784Y660931D01*
X979614Y662958D01*
X977959Y664614D01*
X975931Y665784D01*
X974500Y666168D01*
D02*
G37*
G36*
X970500D02*
X969069Y665784D01*
X967041Y664614D01*
X965386Y662958D01*
X964216Y660931D01*
X963832Y659500D01*
X970500D01*
Y666168D01*
D02*
G37*
G36*
X981168Y655500D02*
X974500D01*
Y648832D01*
X975931Y649216D01*
X977959Y650386D01*
X979614Y652041D01*
X980784Y654068D01*
X981168Y655500D01*
D02*
G37*
G36*
X970500D02*
X963832D01*
X964216Y654068D01*
X965386Y652041D01*
X967041Y650386D01*
X969069Y649216D01*
X970500Y648832D01*
Y655500D01*
D02*
G37*
G36*
X586613Y649750D02*
X583387D01*
X580272Y648915D01*
X577478Y647302D01*
X575198Y645022D01*
X573585Y642228D01*
X573157Y640633D01*
X571843D01*
X571415Y642228D01*
X569802Y645022D01*
X567522Y647302D01*
X564728Y648915D01*
X561613Y649750D01*
X558387D01*
X555272Y648915D01*
X552478Y647302D01*
X550197Y645022D01*
X548585Y642228D01*
X548520Y641985D01*
X547250Y642153D01*
Y649750D01*
X522750D01*
Y625250D01*
X547250D01*
Y632847D01*
X548520Y633014D01*
X548585Y632772D01*
X550197Y629978D01*
X552478Y627697D01*
X555272Y626085D01*
X558387Y625250D01*
X561613D01*
X564728Y626085D01*
X567522Y627697D01*
X569802Y629978D01*
X571415Y632772D01*
X571843Y634367D01*
X573157D01*
X573585Y632772D01*
X575198Y629978D01*
X577478Y627697D01*
X580272Y626085D01*
X583387Y625250D01*
X586613D01*
X589728Y626085D01*
X592522Y627697D01*
X594803Y629978D01*
X596415Y632772D01*
X597250Y635887D01*
Y639113D01*
X596415Y642228D01*
X594803Y645022D01*
X592522Y647302D01*
X589728Y648915D01*
X586613Y649750D01*
D02*
G37*
G36*
X915061Y600040D02*
X914500D01*
Y569500D01*
X945040D01*
Y570061D01*
X944239Y575120D01*
X942656Y579991D01*
X940331Y584555D01*
X937320Y588698D01*
X933699Y592320D01*
X929555Y595331D01*
X924991Y597656D01*
X920120Y599239D01*
X915061Y600040D01*
D02*
G37*
G36*
X910500D02*
X909939D01*
X904880Y599239D01*
X900009Y597656D01*
X895445Y595331D01*
X891302Y592320D01*
X887680Y588698D01*
X884669Y584555D01*
X882344Y579991D01*
X880761Y575120D01*
X879960Y570061D01*
Y569500D01*
X910500D01*
Y600040D01*
D02*
G37*
%LPD*%
D14*
X844900Y940000D02*
X970000D01*
X745300Y1039600D02*
X745500D01*
X970000Y970000D02*
Y1065000D01*
X930000Y1105000D02*
X970000Y1065000D01*
X622500Y1105000D02*
X930000D01*
X592900Y1075400D02*
X622500Y1105000D01*
X592900Y1065000D02*
X593100D01*
X770700Y1039600D02*
X770900D01*
X855300Y955000D02*
X985000D01*
X997500Y942500D01*
X1000000Y970000D02*
Y1070000D01*
X947500Y1122500D02*
X1000000Y1070000D01*
X607500Y1122500D02*
X947500D01*
X567500Y1082500D02*
X607500Y1122500D01*
X567500Y1065000D02*
X567700D01*
X491300D02*
X491500D01*
X502850Y1037456D02*
Y1053450D01*
Y1037456D02*
X635305Y905001D01*
X650000D01*
X745300Y1039600D02*
X844900Y940000D01*
X592900Y1065000D02*
Y1075400D01*
X770700Y1039600D02*
X855300Y955000D01*
X997500Y942500D02*
X1000000D01*
X567500Y1065000D02*
Y1082500D01*
X491300Y1065000D02*
X502850Y1053450D01*
D43*
X770000Y827500D02*
X770000D01*
X795000Y807500D02*
X797500Y810000D01*
X795000Y785000D02*
Y807500D01*
X877500Y785000D02*
Y810000D01*
X842500Y822500D02*
X865000D01*
X877500Y810000D01*
X857000Y785000D02*
X857500D01*
X852770Y789230D02*
X857000Y785000D01*
X852770Y789230D02*
Y789730D01*
X827500Y815000D02*
X852770Y789730D01*
X827500Y815000D02*
Y822500D01*
X815000Y787500D02*
Y807500D01*
X812500Y810000D02*
Y822500D01*
Y810000D02*
X815000Y807500D01*
X797500Y810000D02*
Y822500D01*
X752500Y785000D02*
X753000D01*
X784147Y816147D01*
Y821647D01*
X785000Y822500D01*
X842500Y832500D02*
X842500Y832500D01*
X842500Y822500D02*
Y832500D01*
X842500Y822500D02*
X842500Y822500D01*
X827500Y822500D02*
Y832500D01*
X812500Y832700D02*
X812500Y832700D01*
Y822500D02*
Y832700D01*
Y822500D02*
X812500Y822500D01*
X797500Y832700D02*
X797500Y832700D01*
X797500Y822500D02*
Y832700D01*
X797500Y822500D02*
X797500Y822500D01*
X785000Y832700D02*
X785000Y832700D01*
X785000Y822500D02*
Y832700D01*
X785000Y822500D02*
X785000Y822500D01*
X770000Y827500D02*
Y832700D01*
Y826048D02*
Y827500D01*
X767500Y823548D02*
X770000Y826048D01*
X767500Y822500D02*
Y823548D01*
X747500Y822500D02*
X767500D01*
X732500Y807500D02*
X747500Y822500D01*
X732500Y787500D02*
Y807500D01*
X702500Y905001D02*
X725001D01*
X745000Y925000D02*
X820000D01*
X725001Y905001D02*
X745000Y925000D01*
X967500Y910000D02*
X967500Y910000D01*
X835000Y910000D02*
X967500D01*
X820000Y925000D02*
X835000Y910000D01*
X592900Y1039600D02*
X593100D01*
X594814Y1031858D02*
Y1037686D01*
Y1031858D02*
X595000Y1031671D01*
Y1010000D02*
Y1031671D01*
Y1010000D02*
X700000Y905001D01*
X702500D01*
X592900Y1039600D02*
X594814Y1037686D01*
D45*
X912500Y567500D02*
D03*
X342500Y570000D02*
D03*
X920000Y1050000D02*
D03*
D46*
X857500Y784500D02*
D03*
X795000Y785000D02*
D03*
X732500Y784500D02*
D03*
D47*
X877500Y784500D02*
D03*
X815000Y785000D02*
D03*
X752500Y784500D02*
D03*
D48*
X466100Y1039600D02*
D03*
Y1065000D02*
D03*
X516900Y1039600D02*
D03*
X567700D02*
D03*
X618500D02*
D03*
X643900D02*
D03*
X669300D02*
D03*
Y1065000D02*
D03*
X694700D02*
D03*
X745500D02*
D03*
X796300D02*
D03*
X847100D02*
D03*
X872500Y1039600D02*
D03*
Y1065000D02*
D03*
X796300Y1039600D02*
D03*
X847100D02*
D03*
X542300D02*
D03*
X821700D02*
D03*
X593100Y1065000D02*
D03*
X643900D02*
D03*
X745500Y1039600D02*
D03*
X516900Y1065000D02*
D03*
X770900D02*
D03*
X821700D02*
D03*
X720100D02*
D03*
Y1039600D02*
D03*
X694700D02*
D03*
X618500Y1065000D02*
D03*
X593100Y1039600D02*
D03*
X542300Y1065000D02*
D03*
X491500D02*
D03*
Y1039600D02*
D03*
X440700Y1065000D02*
D03*
Y1039600D02*
D03*
X415300Y1065000D02*
D03*
Y1039600D02*
D03*
X389900Y1065000D02*
D03*
X770900Y1039600D02*
D03*
X567700Y1065000D02*
D03*
D49*
X389900Y1039600D02*
D03*
D50*
X525833Y905001D02*
D03*
X702500D02*
D03*
X450000D02*
D03*
X501667D02*
D03*
X475833D02*
D03*
X650000D02*
D03*
X676250D02*
D03*
D51*
X970000Y820000D02*
D03*
Y850000D02*
D03*
Y880000D02*
D03*
Y910000D02*
D03*
Y940000D02*
D03*
Y970000D02*
D03*
X1000000Y820000D02*
D03*
Y850000D02*
D03*
Y880000D02*
D03*
Y940000D02*
D03*
Y910000D02*
D03*
D52*
X1043000Y841600D02*
D03*
Y948400D02*
D03*
D53*
X1000000Y970000D02*
D03*
D54*
X585000Y637500D02*
D03*
X560000D02*
D03*
D55*
X535000D02*
D03*
D56*
X865000Y855000D02*
D03*
X850000D02*
D03*
X842500Y822500D02*
D03*
X917500Y725000D02*
D03*
X605000Y745000D02*
D03*
X557500Y742500D02*
D03*
X505000D02*
D03*
X767500Y822500D02*
D03*
X805000Y905000D02*
D03*
X827500Y822500D02*
D03*
X812500D02*
D03*
X797500D02*
D03*
X785000D02*
D03*
D57*
X787500Y905000D02*
D03*
D58*
X972500Y657500D02*
D03*
D59*
X827500Y842300D02*
D03*
Y832500D02*
D03*
X842500Y842300D02*
D03*
Y832500D02*
D03*
X797500Y832700D02*
D03*
Y842500D02*
D03*
X812500Y832700D02*
D03*
Y842500D02*
D03*
X785000Y832700D02*
D03*
Y842500D02*
D03*
X770000Y832700D02*
D03*
Y842500D02*
D03*
D60*
X642917Y787917D02*
X753334Y677500D01*
X642917Y787917D02*
X642917D01*
X525833Y905001D02*
X642917Y787917D01*
X642500Y787500D02*
X760000Y905000D01*
X787500D01*
X970000Y880000D02*
X1000000D01*
X970000D02*
Y880000D01*
X906795Y816795D02*
X970000Y880000D01*
X906795Y738283D02*
Y816795D01*
X846012Y677500D02*
X906795Y738283D01*
X753334Y677500D02*
X846012D01*
X366488Y1065000D02*
X389900D01*
X365000Y1063512D02*
X366488Y1065000D01*
X365000Y1002500D02*
Y1063512D01*
Y1002500D02*
X411783Y955718D01*
X496782D01*
X525833Y926667D01*
Y905001D02*
Y926667D01*
M02*
