%TF.GenerationSoftware,Altium Limited,Altium Designer,23.4.1 (23)*%
G04 Layer_Color=32896*
%FSLAX45Y45*%
%MOMM*%
%TF.SameCoordinates,7AEF0BED-FCCA-4DCD-95BC-53F5E5A48FEA*%
%TF.FilePolarity,Positive*%
%TF.FileFunction,Legend,Bot*%
%TF.Part,Single*%
G01*
G75*
%TA.AperFunction,NonConductor*%
%ADD39C,0.20000*%
%ADD41C,0.25400*%
D39*
X3772002Y10269002D02*
X8864702D01*
X3772002Y10777002D02*
X8864702D01*
X3772002Y10269002D02*
Y10777002D01*
X8864702Y10269002D02*
Y10777002D01*
D41*
X8389653Y8689299D02*
X8415045Y8714691D01*
X8465828D01*
X8491220Y8689299D01*
Y8587732D01*
X8465828Y8562340D01*
X8415045D01*
X8389653Y8587732D01*
X8237302Y8714691D02*
X8338869D01*
Y8638515D01*
X8288086Y8663907D01*
X8262694D01*
X8237302Y8638515D01*
Y8587732D01*
X8262694Y8562340D01*
X8313477D01*
X8338869Y8587732D01*
X8539513Y8689299D02*
X8564905Y8714691D01*
X8615688D01*
X8641080Y8689299D01*
Y8587732D01*
X8615688Y8562340D01*
X8564905D01*
X8539513Y8587732D01*
X8387162Y8714691D02*
X8437946Y8689299D01*
X8488729Y8638515D01*
Y8587732D01*
X8463337Y8562340D01*
X8412554D01*
X8387162Y8587732D01*
Y8613123D01*
X8412554Y8638515D01*
X8488729D01*
X7909593Y8691839D02*
X7934985Y8717231D01*
X7985768D01*
X8011160Y8691839D01*
Y8590272D01*
X7985768Y8564880D01*
X7934985D01*
X7909593Y8590272D01*
X7782634Y8564880D02*
Y8717231D01*
X7858809Y8641055D01*
X7757242D01*
X8059453Y8691839D02*
X8084845Y8717231D01*
X8135628D01*
X8161020Y8691839D01*
Y8590272D01*
X8135628Y8564880D01*
X8084845D01*
X8059453Y8590272D01*
X8008669Y8691839D02*
X7983277Y8717231D01*
X7932494D01*
X7907102Y8691839D01*
Y8666447D01*
X7932494Y8641055D01*
X7957886D01*
X7932494D01*
X7907102Y8615663D01*
Y8590272D01*
X7932494Y8564880D01*
X7983277D01*
X8008669Y8590272D01*
X7635273Y8691839D02*
X7660665Y8717231D01*
X7711448D01*
X7736840Y8691839D01*
Y8590272D01*
X7711448Y8564880D01*
X7660665D01*
X7635273Y8590272D01*
X7482922Y8564880D02*
X7584489D01*
X7482922Y8666447D01*
Y8691839D01*
X7508314Y8717231D01*
X7559097D01*
X7584489Y8691839D01*
X7785133D02*
X7810525Y8717231D01*
X7861308D01*
X7886700Y8691839D01*
Y8590272D01*
X7861308Y8564880D01*
X7810525D01*
X7785133Y8590272D01*
X7734349Y8564880D02*
X7683566D01*
X7708957D01*
Y8717231D01*
X7734349Y8691839D01*
%TF.MD5,cfb90cbb4fd2c833f29096396f839473*%
M02*
