G04*
G04 #@! TF.GenerationSoftware,Altium Limited,Altium Designer,23.4.1 (23)*
G04*
G04 Layer_Physical_Order=1*
G04 Layer_Color=255*
%FSLAX44Y44*%
%MOMM*%
G71*
G04*
G04 #@! TF.SameCoordinates,82385B22-F4C2-4F25-A143-551C1675324C*
G04*
G04*
G04 #@! TF.FilePolarity,Positive*
G04*
G01*
G75*
%ADD11C,0.4000*%
%ADD14C,0.2540*%
%ADD37R,1.4000X1.0000*%
%ADD38O,0.6000X1.9000*%
G04:AMPARAMS|DCode=39|XSize=0.55mm|YSize=0.5mm|CornerRadius=0.0625mm|HoleSize=0mm|Usage=FLASHONLY|Rotation=0.000|XOffset=0mm|YOffset=0mm|HoleType=Round|Shape=RoundedRectangle|*
%AMROUNDEDRECTD39*
21,1,0.5500,0.3750,0,0,0.0*
21,1,0.4250,0.5000,0,0,0.0*
1,1,0.1250,0.2125,-0.1875*
1,1,0.1250,-0.2125,-0.1875*
1,1,0.1250,-0.2125,0.1875*
1,1,0.1250,0.2125,0.1875*
%
%ADD39ROUNDEDRECTD39*%
%ADD40R,0.7500X0.7000*%
%ADD41R,1.0000X1.4000*%
G04:AMPARAMS|DCode=42|XSize=0.55mm|YSize=0.5mm|CornerRadius=0.0625mm|HoleSize=0mm|Usage=FLASHONLY|Rotation=270.000|XOffset=0mm|YOffset=0mm|HoleType=Round|Shape=RoundedRectangle|*
%AMROUNDEDRECTD42*
21,1,0.5500,0.3750,0,0,270.0*
21,1,0.4250,0.5000,0,0,270.0*
1,1,0.1250,-0.1875,-0.2125*
1,1,0.1250,-0.1875,0.2125*
1,1,0.1250,0.1875,0.2125*
1,1,0.1250,0.1875,-0.2125*
%
%ADD42ROUNDEDRECTD42*%
%ADD43C,0.5000*%
%ADD44C,0.7000*%
%ADD45C,6.0000*%
%ADD46R,1.2000X1.2000*%
%ADD47C,1.2000*%
%ADD48C,1.5000*%
%ADD49R,1.5000X1.5000*%
%ADD50C,1.5240*%
%ADD51C,1.5200*%
%ADD52C,3.0000*%
%ADD53R,1.5200X1.5200*%
%ADD54C,1.6500*%
%ADD55R,1.6500X1.6500*%
%ADD56C,0.7000*%
%ADD57C,1.0000*%
%ADD58C,1.2700*%
D11*
X917500Y725000D02*
X917936D01*
X925843Y732907D01*
X920250Y738500D02*
Y738750D01*
X936157Y732907D02*
X936250Y733000D01*
X920250Y738500D02*
X925843Y732907D01*
X927500Y732750D02*
X930000D01*
Y732907D02*
X936157D01*
X805000Y905000D02*
X805556Y904444D01*
Y896156D02*
Y904444D01*
X800000Y890600D02*
X805556Y896156D01*
X800000Y910812D02*
Y927500D01*
Y890600D02*
Y890600D01*
X805000Y905000D02*
Y905812D01*
X800000Y910812D02*
X805000Y905812D01*
D14*
X704263Y1073952D02*
G03*
X702607Y1075349I-9030J-9030D01*
G01*
X707716Y1069936D02*
G03*
X704263Y1073952I-28323J-20854D01*
G01*
X708080Y1069432D02*
G03*
X708308Y1069159I2058J1489D01*
G01*
X661400Y1082500D02*
X695456D01*
X702607Y1075349D01*
X708308Y1069159D02*
X708309Y1069159D01*
X704263Y1073952D02*
X704263Y1073952D01*
X707716Y1069936D02*
X708080Y1069432D01*
X708309Y1069159D02*
X708365Y1068935D01*
X643900Y1065000D02*
X661400Y1082500D01*
X708365Y1056635D02*
Y1068029D01*
X708365Y1068935D02*
X708365Y1068029D01*
X770700Y1065000D02*
X784790Y1050910D01*
Y1017394D02*
Y1050910D01*
Y1017394D02*
X897500Y904685D01*
X800400Y884500D02*
X801062Y885162D01*
X712700Y1052300D02*
X727700D01*
X708365Y1056635D02*
X712700Y1052300D01*
X732500Y1030000D02*
Y1047500D01*
X727700Y1052300D02*
X732500Y1047500D01*
X851200Y884500D02*
Y911300D01*
X732500Y1030000D02*
X851200Y911300D01*
X682500Y1025000D02*
Y1045000D01*
X723753Y983747D02*
X755628D01*
X682500Y1025000D02*
X723753Y983747D01*
X675000Y1052500D02*
X682500Y1045000D01*
X656800Y1052500D02*
X675000D01*
X643900Y1039600D02*
X656800Y1052500D01*
X755628Y983747D02*
X807020Y932354D01*
Y929730D02*
Y932354D01*
Y929730D02*
X809250Y927500D01*
X809500D01*
X669300Y1011164D02*
X737870Y942594D01*
Y889000D02*
Y942594D01*
X439500Y1037000D02*
X440000Y1037500D01*
X439500Y941334D02*
Y1037000D01*
Y941334D02*
X475833Y905001D01*
X576500Y752500D02*
Y1006000D01*
X547500Y1035000D02*
X576500Y1006000D01*
X618500Y1039600D02*
X689356Y968744D01*
Y895858D02*
Y968744D01*
X669300Y1011164D02*
Y1039600D01*
X737870Y889000D02*
X757174Y869696D01*
X897500Y697500D02*
Y904685D01*
X770700Y1065000D02*
X770900D01*
X796100Y1039600D02*
X920000Y915700D01*
X796100Y1039600D02*
X796300D01*
X920000Y747500D02*
Y915700D01*
X824750Y914500D02*
X825000D01*
X813980Y925270D02*
X824750Y914500D01*
X811980Y925270D02*
X813980D01*
X810000Y927250D02*
X811980Y925270D01*
X955000Y746000D02*
X958500Y742500D01*
X955000Y746000D02*
Y835000D01*
X965865Y845865D01*
X965000Y852500D02*
X965865Y851635D01*
X920000Y747000D02*
Y747500D01*
X936500Y752000D02*
X937500Y752500D01*
X996000Y685000D02*
X998000D01*
X1020000Y707000D01*
Y830000D01*
X1002500Y847500D02*
X1020000Y830000D01*
X897500Y697500D02*
X903500Y691500D01*
X955000D01*
X955250D01*
X956480Y692730D01*
Y692980D01*
X958500Y695000D01*
X970000D01*
X624000Y755000D02*
Y983100D01*
X567500Y1039600D02*
X567700D01*
X624000Y727500D02*
Y753999D01*
Y727500D02*
X624500Y727000D01*
X576500Y725000D02*
X576500Y751500D01*
X524500Y723500D02*
X525000Y724001D01*
Y752500D01*
Y842500D01*
X547500Y865000D01*
Y1008800D01*
X518800Y1037500D02*
X547500Y1008800D01*
X517500Y1037500D02*
X518800D01*
X605000Y727500D02*
X605500Y727000D01*
X605000Y745000D02*
X612500Y752500D01*
X567500Y752250D02*
Y752500D01*
X557750Y742500D02*
X567500Y752250D01*
X557500Y742500D02*
X557750D01*
X516000Y752250D02*
Y752500D01*
X506250Y742500D02*
X516000Y752250D01*
X505000Y742500D02*
X506250D01*
X505000Y740000D02*
Y742500D01*
Y724001D02*
X505500Y723500D01*
X414100Y1036600D02*
X415000Y1037500D01*
X414100Y940900D02*
Y1036600D01*
Y940900D02*
X450000Y905001D01*
X813100Y869696D02*
Y884500D01*
X757174Y869696D02*
X813100D01*
X689356Y895858D02*
X724154Y861060D01*
X829864D01*
X838500Y869696D01*
Y884500D01*
X825000Y900214D02*
Y905500D01*
Y900214D02*
X825800Y899414D01*
Y884500D02*
Y899414D01*
X965865Y845865D02*
Y851635D01*
X920000Y747000D02*
X920250D01*
X925750Y752500D01*
X937500D01*
X567500Y1039600D02*
X624000Y983100D01*
X567500Y1039600D02*
Y1040000D01*
X612500Y752500D02*
Y755000D01*
D37*
X974000Y694500D02*
D03*
Y675500D02*
D03*
X996000Y685000D02*
D03*
X936500Y752000D02*
D03*
Y733000D02*
D03*
X958500Y742500D02*
D03*
D38*
X863900Y884500D02*
D03*
X851200D02*
D03*
X838500D02*
D03*
X825800D02*
D03*
X813100D02*
D03*
X800400D02*
D03*
X787700D02*
D03*
X775000D02*
D03*
X863900Y837500D02*
D03*
X851200D02*
D03*
X838500D02*
D03*
X825800D02*
D03*
X813100D02*
D03*
X800400D02*
D03*
X787700D02*
D03*
X775000D02*
D03*
D39*
X920000Y738500D02*
D03*
Y747500D02*
D03*
X955000Y682500D02*
D03*
Y691500D02*
D03*
X825000Y914500D02*
D03*
Y905500D02*
D03*
D40*
X809500Y927500D02*
D03*
X800000D02*
D03*
D41*
X615000Y705000D02*
D03*
X605500Y727000D02*
D03*
X624500D02*
D03*
X567000Y702999D02*
D03*
X557500Y725000D02*
D03*
X576500D02*
D03*
X515000Y701500D02*
D03*
X505500Y723500D02*
D03*
X524500D02*
D03*
D42*
X567500Y752500D02*
D03*
X576500D02*
D03*
X516000D02*
D03*
X525000D02*
D03*
X615000Y755000D02*
D03*
X624000D02*
D03*
D43*
X863900Y837627D02*
Y853359D01*
X864873Y854332D01*
Y855000D01*
X851200Y837500D02*
Y853259D01*
X850000Y854459D02*
X851200Y853259D01*
X850000Y854459D02*
Y855000D01*
X825800Y825115D02*
Y837209D01*
Y825115D02*
X827117Y823798D01*
Y822883D02*
Y823798D01*
Y822883D02*
X827500Y822500D01*
X800209Y837309D02*
X800400Y837500D01*
X800209Y827709D02*
Y837309D01*
X797500Y822500D02*
Y823041D01*
X798817Y824358D01*
Y826317D01*
X800209Y827709D01*
X785000Y823041D02*
X787509Y825550D01*
X785000Y822500D02*
Y823041D01*
X787509Y825550D02*
Y837309D01*
X787700Y837500D01*
X775000Y830500D02*
Y835000D01*
X767500Y823000D02*
X775000Y830500D01*
X767500Y822500D02*
Y823000D01*
X838500Y830064D02*
X841647Y826917D01*
Y823353D02*
Y826917D01*
X838500Y830064D02*
Y837500D01*
X841647Y823353D02*
X842500Y822500D01*
X812500D02*
X812800Y822800D01*
Y837200D01*
X813100Y837500D01*
X585000Y637500D02*
X615000Y667500D01*
Y700000D01*
X561944Y642500D02*
X567000Y647556D01*
Y702999D01*
X515000Y657500D02*
Y701500D01*
Y657500D02*
X532500Y640000D01*
X605000Y727500D02*
Y745000D01*
X557500Y725000D02*
Y742500D01*
X505000Y724001D02*
Y740000D01*
X972500Y657500D02*
Y675000D01*
X560000Y642500D02*
X561944D01*
X955000Y680500D02*
X955250D01*
X960750Y675000D01*
X975000D01*
D44*
X787600Y884782D02*
Y904900D01*
X787500Y905000D02*
X787600Y904900D01*
Y884782D02*
X787700Y884682D01*
X775000Y884500D02*
Y884682D01*
X787700D01*
Y884500D02*
Y884682D01*
D45*
X912500Y567500D02*
D03*
X342500Y570000D02*
D03*
X920000Y1050000D02*
D03*
D46*
X857500Y784500D02*
D03*
X795000Y785000D02*
D03*
X732500Y784500D02*
D03*
D47*
X877500Y784500D02*
D03*
X815000Y785000D02*
D03*
X752500Y784500D02*
D03*
D48*
X466100Y1039600D02*
D03*
Y1065000D02*
D03*
X516900Y1039600D02*
D03*
X567700D02*
D03*
X618500D02*
D03*
X643900D02*
D03*
X669300D02*
D03*
Y1065000D02*
D03*
X694700D02*
D03*
X745500D02*
D03*
X796300D02*
D03*
X847100D02*
D03*
X872500Y1039600D02*
D03*
Y1065000D02*
D03*
X796300Y1039600D02*
D03*
X847100D02*
D03*
X542300D02*
D03*
X821700D02*
D03*
X593100Y1065000D02*
D03*
X643900D02*
D03*
X745500Y1039600D02*
D03*
X516900Y1065000D02*
D03*
X770900D02*
D03*
X821700D02*
D03*
X720100D02*
D03*
Y1039600D02*
D03*
X694700D02*
D03*
X618500Y1065000D02*
D03*
X593100Y1039600D02*
D03*
X542300Y1065000D02*
D03*
X491500D02*
D03*
Y1039600D02*
D03*
X440700Y1065000D02*
D03*
Y1039600D02*
D03*
X415300Y1065000D02*
D03*
Y1039600D02*
D03*
X389900Y1065000D02*
D03*
X770900Y1039600D02*
D03*
X567700Y1065000D02*
D03*
D49*
X389900Y1039600D02*
D03*
D50*
X525833Y905001D02*
D03*
X702500D02*
D03*
X450000D02*
D03*
X501667D02*
D03*
X475833D02*
D03*
X650000D02*
D03*
X676250D02*
D03*
D51*
X970000Y820000D02*
D03*
Y850000D02*
D03*
Y880000D02*
D03*
Y910000D02*
D03*
Y940000D02*
D03*
Y970000D02*
D03*
X1000000Y820000D02*
D03*
Y850000D02*
D03*
Y880000D02*
D03*
Y940000D02*
D03*
Y910000D02*
D03*
D52*
X1043000Y841600D02*
D03*
Y948400D02*
D03*
D53*
X1000000Y970000D02*
D03*
D54*
X585000Y637500D02*
D03*
X560000D02*
D03*
D55*
X535000D02*
D03*
D56*
X865000Y855000D02*
D03*
X850000D02*
D03*
X842500Y822500D02*
D03*
X917500Y725000D02*
D03*
X605000Y745000D02*
D03*
X557500Y742500D02*
D03*
X505000D02*
D03*
X767500Y822500D02*
D03*
X805000Y905000D02*
D03*
X827500Y822500D02*
D03*
X812500D02*
D03*
X797500D02*
D03*
X785000D02*
D03*
D57*
X787500Y905000D02*
D03*
D58*
X972500Y657500D02*
D03*
M02*
