%TF.GenerationSoftware,Altium Limited,Altium Designer,23.4.1 (23)*%
G04 Layer_Physical_Order=1*
G04 Layer_Color=255*
%FSLAX45Y45*%
%MOMM*%
%TF.SameCoordinates,7AEF0BED-FCCA-4DCD-95BC-53F5E5A48FEA*%
%TF.FilePolarity,Positive*%
%TF.FileFunction,Copper,L1,Top,Signal*%
%TF.Part,Single*%
G01*
G75*
%TA.AperFunction,Conductor*%
%ADD10C,0.25400*%
%TA.AperFunction,SMDPad,CuDef*%
%ADD11O,0.60000X1.90000*%
%ADD12R,1.40000X1.00000*%
G04:AMPARAMS|DCode=13|XSize=0.55mm|YSize=0.5mm|CornerRadius=0.0625mm|HoleSize=0mm|Usage=FLASHONLY|Rotation=0.000|XOffset=0mm|YOffset=0mm|HoleType=Round|Shape=RoundedRectangle|*
%AMROUNDEDRECTD13*
21,1,0.55000,0.37500,0,0,0.0*
21,1,0.42500,0.50000,0,0,0.0*
1,1,0.12500,0.21250,-0.18750*
1,1,0.12500,-0.21250,-0.18750*
1,1,0.12500,-0.21250,0.18750*
1,1,0.12500,0.21250,0.18750*
%
%ADD13ROUNDEDRECTD13*%
%ADD14R,0.75000X0.70000*%
%ADD15R,1.00000X1.40000*%
G04:AMPARAMS|DCode=16|XSize=0.55mm|YSize=0.5mm|CornerRadius=0.0625mm|HoleSize=0mm|Usage=FLASHONLY|Rotation=270.000|XOffset=0mm|YOffset=0mm|HoleType=Round|Shape=RoundedRectangle|*
%AMROUNDEDRECTD16*
21,1,0.55000,0.37500,0,0,270.0*
21,1,0.42500,0.50000,0,0,270.0*
1,1,0.12500,-0.18750,-0.21250*
1,1,0.12500,-0.18750,0.21250*
1,1,0.12500,0.18750,0.21250*
1,1,0.12500,0.18750,-0.21250*
%
%ADD16ROUNDEDRECTD16*%
%TA.AperFunction,Conductor*%
%ADD17C,0.50000*%
%ADD18C,0.40000*%
%ADD19C,0.70000*%
%TA.AperFunction,NonConductor*%
%ADD20C,0.50000*%
%TA.AperFunction,ViaPad*%
%ADD21C,6.00000*%
%TA.AperFunction,ComponentPad*%
%ADD22R,1.20000X1.20000*%
%ADD23C,1.20000*%
%ADD24C,1.50000*%
%ADD25R,1.50000X1.50000*%
%TA.AperFunction,ViaPad*%
%ADD26C,1.52400*%
%TA.AperFunction,ComponentPad*%
%ADD27C,1.52000*%
%ADD28C,2.99999*%
%ADD29R,1.52000X1.52000*%
%ADD30C,1.65000*%
%ADD31R,1.65000X1.65000*%
%TA.AperFunction,ViaPad*%
%ADD32C,0.70000*%
%ADD33C,1.00000*%
%ADD34C,1.27000*%
D10*
X7042633Y10739523D02*
G03*
X7026073Y10753485I-90298J-90298D01*
G01*
X7077156Y10699360D02*
G03*
X7042633Y10739522I-283225J-208536D01*
G01*
X7080797Y10694322D02*
G03*
X7083085Y10691586I20581J14886D01*
G01*
X6614000Y10825000D02*
X6954557D01*
X7026073Y10753485D01*
X7083085Y10691586D02*
X7083086Y10691586D01*
X7042633Y10739522D02*
X7042633Y10739522D01*
X7077156Y10699360D02*
X7080797Y10694322D01*
X7083086Y10691586D02*
X7083651Y10689346D01*
X6439002Y10650002D02*
X6614000Y10825000D01*
X7083651Y10566349D02*
Y10680292D01*
X7083651Y10689346D02*
X7083651Y10680292D01*
X7707000Y10650002D02*
X7847899Y10509103D01*
Y10173945D02*
Y10509103D01*
Y10173945D02*
X8974999Y9046845D01*
X8004002Y8845001D02*
X8010623Y8851622D01*
X7126999Y10523002D02*
X7276999D01*
X7083651Y10566349D02*
X7126999Y10523002D01*
X7325000Y10300000D02*
Y10475000D01*
X7276999Y10523002D02*
X7325000Y10475000D01*
X8512002Y8845001D02*
Y9112998D01*
X7325000Y10300000D02*
X8512002Y9112998D01*
X6825000Y10250000D02*
Y10450000D01*
X7237533Y9837467D02*
X7556277D01*
X6825000Y10250000D02*
X7237533Y9837467D01*
X6750000Y10525000D02*
X6825000Y10450000D01*
X6568000Y10525000D02*
X6750000D01*
X6439002Y10396002D02*
X6568000Y10525000D01*
X7556277Y9837467D02*
X8070201Y9323544D01*
Y9297300D02*
Y9323544D01*
Y9297300D02*
X8092501Y9275000D01*
X8095001D01*
X6693002Y10111638D02*
X7378700Y9425940D01*
Y8890000D02*
Y9425940D01*
X4395003Y10370002D02*
X4400001Y10375001D01*
X4395003Y9413337D02*
Y10370002D01*
Y9413337D02*
X4758334Y9050005D01*
X5765002Y7524999D02*
Y10059995D01*
X5475000Y10350002D02*
X5765002Y10059995D01*
X6185002Y10396002D02*
X6893560Y9687443D01*
Y8958580D02*
Y9687443D01*
X6693002Y10111638D02*
Y10396002D01*
X7378700Y8890000D02*
X7571740Y8696960D01*
X8974999Y6975003D02*
Y9046845D01*
X7707000Y10650002D02*
X7709002D01*
X7961000Y10396002D02*
X9200002Y9157000D01*
X7961000Y10396002D02*
X7963002D01*
X9200002Y7475002D02*
Y9157000D01*
X8247501Y9145001D02*
X8250001D01*
X8139802Y9252700D02*
X8247501Y9145001D01*
X8119801Y9252700D02*
X8139802D01*
X8100000Y9272501D02*
X8119801Y9252700D01*
X9549999Y7460000D02*
X9585000Y7424999D01*
X9549999Y7460000D02*
Y8350001D01*
X9658650Y8458652D01*
X9649998Y8525002D02*
X9658650Y8516351D01*
X9200002Y7469998D02*
Y7475002D01*
X9365000Y7520000D02*
X9374998Y7524999D01*
X9960000Y6849999D02*
X9980000D01*
X10200000Y7069999D01*
Y8299999D01*
X10024999Y8475000D02*
X10200000Y8299999D01*
X8974999Y6975003D02*
X9034998Y6914998D01*
X9549999D01*
X9552498D01*
X9564802Y6927301D01*
Y6929801D01*
X9585000Y6949999D01*
X9700001D01*
X6239998Y7549998D02*
Y9831004D01*
X5675000Y10396002D02*
X5677002D01*
X6239998Y7275002D02*
Y7539995D01*
Y7275002D02*
X6245001Y7269998D01*
X5764997Y7249998D02*
X5765002Y7515001D01*
X5244998Y7235002D02*
X5250002Y7240006D01*
Y7524999D01*
Y8425002D01*
X5475000Y8650000D01*
Y10088001D01*
X5188001Y10375001D02*
X5475000Y10088001D01*
X5175001Y10375001D02*
X5188001D01*
X6050001Y7274997D02*
X6054999Y7269998D01*
X6050001Y7449998D02*
X6125002Y7524999D01*
X5675000Y7522500D02*
Y7524999D01*
X5577500Y7424999D02*
X5675000Y7522500D01*
X5575000Y7424999D02*
X5577500D01*
X5160000Y7522500D02*
Y7524999D01*
X5062499Y7424999D02*
X5160000Y7522500D01*
X5050003Y7424999D02*
X5062499D01*
X5050003Y7400000D02*
Y7424999D01*
Y7240006D02*
X5055001Y7235002D01*
X4141003Y10366004D02*
X4149999Y10375001D01*
X4141003Y9409003D02*
Y10366004D01*
Y9409003D02*
X4500001Y9050005D01*
X8131002Y8696960D02*
Y8845001D01*
X7571740Y8696960D02*
X8131002D01*
X6893560Y8958580D02*
X7241540Y8610600D01*
X8298642D01*
X8385002Y8696960D01*
Y8845001D01*
X8250001Y9002141D02*
Y9055003D01*
Y9002141D02*
X8258002Y8994140D01*
Y8845001D02*
Y8994140D01*
X9658650Y8458652D02*
Y8516351D01*
X9200002Y7469998D02*
X9202496D01*
X9257497Y7524999D01*
X9374998D01*
X5675000Y10396002D02*
X6239998Y9831004D01*
X5675000Y10396002D02*
Y10400000D01*
X6125002Y7524999D02*
Y7549998D01*
D11*
X8639002Y8845001D02*
D03*
X8512002D02*
D03*
X8385002D02*
D03*
X8258002D02*
D03*
X8131002D02*
D03*
X8004002D02*
D03*
X7877002D02*
D03*
X7750002D02*
D03*
X8639002Y8375000D02*
D03*
X8512002D02*
D03*
X8385002D02*
D03*
X8258002D02*
D03*
X8131002D02*
D03*
X8004002D02*
D03*
X7877002D02*
D03*
X7750002D02*
D03*
D12*
X9585000Y7424999D02*
D03*
X9365000Y7329998D02*
D03*
Y7520000D02*
D03*
X9960000Y6849999D02*
D03*
X9740001Y6755003D02*
D03*
Y6945000D02*
D03*
D13*
X9200002Y7384999D02*
D03*
Y7475002D02*
D03*
X9549999Y6825000D02*
D03*
Y6914998D02*
D03*
X8250001Y9145001D02*
D03*
Y9055003D02*
D03*
D14*
X8095001Y9275000D02*
D03*
X8000000D02*
D03*
D15*
X6150000Y7049999D02*
D03*
X6054999Y7269998D02*
D03*
X6245001D02*
D03*
X5669996Y7029994D02*
D03*
X5575000Y7249998D02*
D03*
X5764997D02*
D03*
X5149997Y7014997D02*
D03*
X5055001Y7235002D02*
D03*
X5244998D02*
D03*
D16*
X5675000Y7524999D02*
D03*
X5765002D02*
D03*
X5160000D02*
D03*
X5250002D02*
D03*
X6150000Y7549998D02*
D03*
X6239998D02*
D03*
D17*
X8639002Y8376266D02*
Y8533590D01*
X8648734Y8543321D01*
Y8550000D01*
X8512002Y8375000D02*
Y8532585D01*
X8500000Y8544588D02*
X8512002Y8532585D01*
X8500000Y8544588D02*
Y8550000D01*
X8258002Y8251154D02*
Y8372087D01*
Y8251154D02*
X8271173Y8237983D01*
Y8228827D02*
Y8237983D01*
Y8228827D02*
X8275000Y8225000D01*
X8002089Y8373087D02*
X8004002Y8375000D01*
X8002089Y8277089D02*
Y8373087D01*
X7975000Y8225000D02*
Y8230412D01*
X7988170Y8243583D01*
Y8263170D01*
X8002089Y8277089D01*
X7850000Y8230412D02*
X7875089Y8255501D01*
X7850000Y8225000D02*
Y8230412D01*
X7875089Y8255501D02*
Y8373087D01*
X7877002Y8375000D01*
X7750000Y8304999D02*
Y8350000D01*
X7675000Y8229999D02*
X7750000Y8304999D01*
X7675000Y8225000D02*
Y8229999D01*
X8385002Y8300637D02*
X8416466Y8269173D01*
Y8233534D02*
Y8269173D01*
X8385002Y8300637D02*
Y8375000D01*
X8416466Y8233534D02*
X8425000Y8225000D01*
X8125000D02*
X8128001Y8228001D01*
Y8371998D01*
X8131002Y8375000D01*
X5850001Y6374999D02*
X6150000Y6674998D01*
Y7000001D01*
X5619440Y6425001D02*
X5669996Y6475557D01*
Y7029994D01*
X5149997Y6574998D02*
Y7014997D01*
Y6574998D02*
X5324998Y6400002D01*
X6050001Y7274997D02*
Y7449998D01*
X5575000Y7249998D02*
Y7424999D01*
X5050003Y7240006D02*
Y7400000D01*
X9725000Y6574998D02*
Y6749999D01*
X5599999Y6425001D02*
X5619440D01*
D18*
X9175000Y7250000D02*
X9179362D01*
X9258432Y7329069D01*
X9202502Y7384999D02*
Y7387499D01*
X9361572Y7329069D02*
X9362500Y7329998D01*
X9202502Y7384999D02*
X9258432Y7329069D01*
X9275000Y7327500D02*
X9300000D01*
Y7329069D02*
X9361572D01*
X8050000Y9050000D02*
X8055560Y9044440D01*
Y8961560D02*
Y9044440D01*
X8000000Y8906000D02*
X8055560Y8961560D01*
X8000000Y9108118D02*
Y9275000D01*
Y8905999D02*
Y8906000D01*
X8050000Y9050000D02*
Y9058118D01*
X8000000Y9108118D02*
X8050000Y9058118D01*
D19*
X7876001Y8847821D02*
Y9048999D01*
X7875000Y9050000D02*
X7876001Y9048999D01*
Y8847821D02*
X7877002Y8846820D01*
X7750002Y8845001D02*
Y8846820D01*
X7877002D01*
Y8845001D02*
Y8846820D01*
D20*
X9549999Y6805000D02*
X9552498D01*
X9607499Y6749999D01*
X9749998D01*
D21*
X9125001Y5675000D02*
D03*
X3424997Y5700004D02*
D03*
X9200002Y10500004D02*
D03*
D22*
X8574999Y7844998D02*
D03*
X7950002Y7850002D02*
D03*
X7324999Y7845003D02*
D03*
D23*
X8774999Y7844998D02*
D03*
X8150001Y7850002D02*
D03*
X7524999Y7845003D02*
D03*
D24*
X4661002Y10396002D02*
D03*
Y10650002D02*
D03*
X5169002Y10396002D02*
D03*
X5677002D02*
D03*
X6185002D02*
D03*
X6439002D02*
D03*
X6693002D02*
D03*
Y10650002D02*
D03*
X6947002D02*
D03*
X7455002D02*
D03*
X7963002D02*
D03*
X8471002D02*
D03*
X8725002Y10396002D02*
D03*
Y10650002D02*
D03*
X7963002Y10396002D02*
D03*
X8471002D02*
D03*
X5423002D02*
D03*
X8217002D02*
D03*
X5931002Y10650002D02*
D03*
X6439002D02*
D03*
X7455002Y10396002D02*
D03*
X5169002Y10650002D02*
D03*
X7709002D02*
D03*
X8217002D02*
D03*
X7201002D02*
D03*
Y10396002D02*
D03*
X6947002D02*
D03*
X6185002Y10650002D02*
D03*
X5931002Y10396002D02*
D03*
X5423002Y10650002D02*
D03*
X4915002D02*
D03*
Y10396002D02*
D03*
X4407002Y10650002D02*
D03*
Y10396002D02*
D03*
X4153002Y10650002D02*
D03*
Y10396002D02*
D03*
X3899002Y10650002D02*
D03*
X7709002Y10396002D02*
D03*
X5677002Y10650002D02*
D03*
D25*
X3899002Y10396002D02*
D03*
D26*
X5258333Y9050005D02*
D03*
X7025000D02*
D03*
X4500001D02*
D03*
X5016668D02*
D03*
X4758334D02*
D03*
X6500002D02*
D03*
X6762501D02*
D03*
D27*
X9700001Y8200004D02*
D03*
Y8500003D02*
D03*
Y8800003D02*
D03*
Y9100002D02*
D03*
Y9400002D02*
D03*
Y9700001D02*
D03*
X10000000Y8199999D02*
D03*
Y8499998D02*
D03*
Y8799998D02*
D03*
Y9400002D02*
D03*
Y9100002D02*
D03*
D28*
X10429997Y8416000D02*
D03*
Y9483999D02*
D03*
D29*
X10000000Y9700001D02*
D03*
D30*
X5850001Y6374999D02*
D03*
X5599999D02*
D03*
D31*
X5349997D02*
D03*
D32*
X8650000Y8550000D02*
D03*
X8500000D02*
D03*
X8425000Y8225000D02*
D03*
X9175000Y7250000D02*
D03*
X6050000Y7450000D02*
D03*
X5575000Y7425000D02*
D03*
X5050000D02*
D03*
X7675000Y8225000D02*
D03*
X8050000Y9050000D02*
D03*
X8275000Y8225000D02*
D03*
X8125000D02*
D03*
X7975000D02*
D03*
X7850000D02*
D03*
D33*
X7875000Y9050000D02*
D03*
D34*
X9725000Y6574998D02*
D03*
%TF.MD5,9a75126c079978962c5cc96356dbd4ee*%
M02*
