G04*
G04 #@! TF.GenerationSoftware,Altium Limited,Altium Designer,23.4.1 (23)*
G04*
G04 Layer_Color=8388736*
%FSLAX44Y44*%
%MOMM*%
G71*
G04*
G04 #@! TF.SameCoordinates,82385B22-F4C2-4F25-A143-551C1675324C*
G04*
G04*
G04 #@! TF.FilePolarity,Negative*
G04*
G01*
G75*
%ADD16R,1.6032X1.2032*%
%ADD17O,0.8032X2.1032*%
G04:AMPARAMS|DCode=18|XSize=0.7532mm|YSize=0.7032mm|CornerRadius=0.1641mm|HoleSize=0mm|Usage=FLASHONLY|Rotation=0.000|XOffset=0mm|YOffset=0mm|HoleType=Round|Shape=RoundedRectangle|*
%AMROUNDEDRECTD18*
21,1,0.7532,0.3750,0,0,0.0*
21,1,0.4250,0.7032,0,0,0.0*
1,1,0.3282,0.2125,-0.1875*
1,1,0.3282,-0.2125,-0.1875*
1,1,0.3282,-0.2125,0.1875*
1,1,0.3282,0.2125,0.1875*
%
%ADD18ROUNDEDRECTD18*%
%ADD19R,0.9532X0.9032*%
%ADD20R,1.2032X1.6032*%
G04:AMPARAMS|DCode=21|XSize=0.7532mm|YSize=0.7032mm|CornerRadius=0.1641mm|HoleSize=0mm|Usage=FLASHONLY|Rotation=270.000|XOffset=0mm|YOffset=0mm|HoleType=Round|Shape=RoundedRectangle|*
%AMROUNDEDRECTD21*
21,1,0.7532,0.3750,0,0,270.0*
21,1,0.4250,0.7032,0,0,270.0*
1,1,0.3282,-0.1875,-0.2125*
1,1,0.3282,-0.1875,0.2125*
1,1,0.3282,0.1875,0.2125*
1,1,0.3282,0.1875,-0.2125*
%
%ADD21ROUNDEDRECTD21*%
%ADD22C,6.2032*%
%ADD23R,1.4032X1.4032*%
%ADD24C,1.4032*%
%ADD25C,1.7032*%
%ADD26R,1.7032X1.7032*%
%ADD27C,0.2032*%
%ADD28C,1.7272*%
%ADD29C,1.7232*%
%ADD30C,3.2032*%
%ADD31R,1.7232X1.7232*%
%ADD32C,1.8532*%
%ADD33R,1.8532X1.8532*%
%ADD34C,0.9032*%
%ADD35C,1.2032*%
%ADD36C,1.4732*%
D16*
X974000Y694500D02*
D03*
Y675500D02*
D03*
X996000Y685000D02*
D03*
X936500Y752000D02*
D03*
Y733000D02*
D03*
X958500Y742500D02*
D03*
D17*
X863900Y884500D02*
D03*
X851200D02*
D03*
X838500D02*
D03*
X825800D02*
D03*
X813100D02*
D03*
X800400D02*
D03*
X787700D02*
D03*
X775000D02*
D03*
X863900Y837500D02*
D03*
X851200D02*
D03*
X838500D02*
D03*
X825800D02*
D03*
X813100D02*
D03*
X800400D02*
D03*
X787700D02*
D03*
X775000D02*
D03*
D18*
X920000Y738500D02*
D03*
Y747500D02*
D03*
X955000Y682500D02*
D03*
Y691500D02*
D03*
X825000Y914500D02*
D03*
Y905500D02*
D03*
D19*
X809500Y927500D02*
D03*
X800000D02*
D03*
D20*
X615000Y705000D02*
D03*
X605500Y727000D02*
D03*
X624500D02*
D03*
X567000Y702999D02*
D03*
X557500Y725000D02*
D03*
X576500D02*
D03*
X515000Y701500D02*
D03*
X505500Y723500D02*
D03*
X524500D02*
D03*
D21*
X567500Y752500D02*
D03*
X576500D02*
D03*
X516000D02*
D03*
X525000D02*
D03*
X615000Y755000D02*
D03*
X624000D02*
D03*
D22*
X912500Y567500D02*
D03*
X342500Y570000D02*
D03*
X920000Y1050000D02*
D03*
D23*
X857500Y784500D02*
D03*
X795000Y785000D02*
D03*
X732500Y784500D02*
D03*
D24*
X877500Y784500D02*
D03*
X815000Y785000D02*
D03*
X752500Y784500D02*
D03*
D25*
X466100Y1039600D02*
D03*
Y1065000D02*
D03*
X516900Y1039600D02*
D03*
X567700D02*
D03*
X618500D02*
D03*
X643900D02*
D03*
X669300D02*
D03*
Y1065000D02*
D03*
X694700D02*
D03*
X745500D02*
D03*
X796300D02*
D03*
X847100D02*
D03*
X872500Y1039600D02*
D03*
Y1065000D02*
D03*
X796300Y1039600D02*
D03*
X847100D02*
D03*
X542300D02*
D03*
X821700D02*
D03*
X593100Y1065000D02*
D03*
X643900D02*
D03*
X745500Y1039600D02*
D03*
X516900Y1065000D02*
D03*
X770900D02*
D03*
X821700D02*
D03*
X720100D02*
D03*
Y1039600D02*
D03*
X694700D02*
D03*
X618500Y1065000D02*
D03*
X593100Y1039600D02*
D03*
X542300Y1065000D02*
D03*
X491500D02*
D03*
Y1039600D02*
D03*
X440700Y1065000D02*
D03*
Y1039600D02*
D03*
X415300Y1065000D02*
D03*
Y1039600D02*
D03*
X389900Y1065000D02*
D03*
X770900Y1039600D02*
D03*
X567700Y1065000D02*
D03*
D26*
X389900Y1039600D02*
D03*
D27*
X342500Y1052500D02*
D03*
D28*
X525833Y905001D02*
D03*
X702500D02*
D03*
X450000D02*
D03*
X501667D02*
D03*
X475833D02*
D03*
X650000D02*
D03*
X676250D02*
D03*
D29*
X970000Y820000D02*
D03*
Y850000D02*
D03*
Y880000D02*
D03*
Y910000D02*
D03*
Y940000D02*
D03*
Y970000D02*
D03*
X1000000Y820000D02*
D03*
Y850000D02*
D03*
Y880000D02*
D03*
Y940000D02*
D03*
Y910000D02*
D03*
D30*
X1043000Y841600D02*
D03*
Y948400D02*
D03*
D31*
X1000000Y970000D02*
D03*
D32*
X585000Y637500D02*
D03*
X560000D02*
D03*
D33*
X535000D02*
D03*
D34*
X865000Y855000D02*
D03*
X850000D02*
D03*
X842500Y822500D02*
D03*
X917500Y725000D02*
D03*
X605000Y745000D02*
D03*
X557500Y742500D02*
D03*
X505000D02*
D03*
X767500Y822500D02*
D03*
X805000Y905000D02*
D03*
X827500Y822500D02*
D03*
X812500D02*
D03*
X797500D02*
D03*
X785000D02*
D03*
D35*
X787500Y905000D02*
D03*
D36*
X972500Y657500D02*
D03*
M02*
