G04*
G04 #@! TF.GenerationSoftware,Altium Limited,Altium Designer,23.4.1 (23)*
G04*
G04 Layer_Color=16711935*
%FSLAX44Y44*%
%MOMM*%
G71*
G04*
G04 #@! TF.SameCoordinates,185317A6-DEBE-468D-8F3A-A91AE6FC2A6A*
G04*
G04*
G04 #@! TF.FilePolarity,Negative*
G04*
G01*
G75*
%ADD28C,6.2032*%
%ADD29R,1.4032X1.4032*%
%ADD30C,1.4032*%
%ADD31C,1.7032*%
%ADD32R,1.7032X1.7032*%
%ADD33C,0.2032*%
%ADD34C,1.7272*%
%ADD35C,1.7232*%
%ADD36C,3.2032*%
%ADD37R,1.7232X1.7232*%
%ADD38C,1.8532*%
%ADD39R,1.8532X1.8532*%
%ADD40C,0.9032*%
%ADD41C,1.2032*%
%ADD42C,1.4732*%
%ADD61R,0.9232X0.9632*%
D28*
X912500Y567500D02*
D03*
X342500Y570000D02*
D03*
X920000Y1050000D02*
D03*
D29*
X857500Y784500D02*
D03*
X795000Y785000D02*
D03*
X732500Y784500D02*
D03*
D30*
X877500Y784500D02*
D03*
X815000Y785000D02*
D03*
X752500Y784500D02*
D03*
D31*
X466100Y1039600D02*
D03*
Y1065000D02*
D03*
X516900Y1039600D02*
D03*
X567700D02*
D03*
X618500D02*
D03*
X643900D02*
D03*
X669300D02*
D03*
Y1065000D02*
D03*
X694700D02*
D03*
X745500D02*
D03*
X796300D02*
D03*
X847100D02*
D03*
X872500Y1039600D02*
D03*
Y1065000D02*
D03*
X796300Y1039600D02*
D03*
X847100D02*
D03*
X542300D02*
D03*
X821700D02*
D03*
X593100Y1065000D02*
D03*
X643900D02*
D03*
X745500Y1039600D02*
D03*
X516900Y1065000D02*
D03*
X770900D02*
D03*
X821700D02*
D03*
X720100D02*
D03*
Y1039600D02*
D03*
X694700D02*
D03*
X618500Y1065000D02*
D03*
X593100Y1039600D02*
D03*
X542300Y1065000D02*
D03*
X491500D02*
D03*
Y1039600D02*
D03*
X440700Y1065000D02*
D03*
Y1039600D02*
D03*
X415300Y1065000D02*
D03*
Y1039600D02*
D03*
X389900Y1065000D02*
D03*
X770900Y1039600D02*
D03*
X567700Y1065000D02*
D03*
D32*
X389900Y1039600D02*
D03*
D33*
X342500Y1052500D02*
D03*
D34*
X525833Y905001D02*
D03*
X702500D02*
D03*
X450000D02*
D03*
X501667D02*
D03*
X475833D02*
D03*
X650000D02*
D03*
X676250D02*
D03*
D35*
X970000Y820000D02*
D03*
Y850000D02*
D03*
Y880000D02*
D03*
Y910000D02*
D03*
Y940000D02*
D03*
Y970000D02*
D03*
X1000000Y820000D02*
D03*
Y850000D02*
D03*
Y880000D02*
D03*
Y940000D02*
D03*
Y910000D02*
D03*
D36*
X1043000Y841600D02*
D03*
Y948400D02*
D03*
D37*
X1000000Y970000D02*
D03*
D38*
X585000Y637500D02*
D03*
X560000D02*
D03*
D39*
X535000D02*
D03*
D40*
X865000Y855000D02*
D03*
X850000D02*
D03*
X842500Y822500D02*
D03*
X917500Y725000D02*
D03*
X605000Y745000D02*
D03*
X557500Y742500D02*
D03*
X505000D02*
D03*
X767500Y822500D02*
D03*
X805000Y905000D02*
D03*
X827500Y822500D02*
D03*
X812500D02*
D03*
X797500D02*
D03*
X785000D02*
D03*
D41*
X787500Y905000D02*
D03*
D42*
X972500Y657500D02*
D03*
D61*
X827500Y842300D02*
D03*
Y832500D02*
D03*
X842500Y842300D02*
D03*
Y832500D02*
D03*
X797500Y832700D02*
D03*
Y842500D02*
D03*
X812500Y832700D02*
D03*
Y842500D02*
D03*
X785000Y832700D02*
D03*
Y842500D02*
D03*
X770000Y832700D02*
D03*
Y842500D02*
D03*
M02*
