G04*
G04 #@! TF.GenerationSoftware,Altium Limited,Altium Designer,23.4.1 (23)*
G04*
G04 Layer_Color=32896*
%FSLAX44Y44*%
%MOMM*%
G71*
G04*
G04 #@! TF.SameCoordinates,8B3D3356-DC06-4FA1-B435-387BC92C29C7*
G04*
G04*
G04 #@! TF.FilePolarity,Positive*
G04*
G01*
G75*
%ADD12C,0.2000*%
%ADD14C,0.2540*%
D12*
X377200Y1026900D02*
X886470D01*
X377200Y1077700D02*
X886470D01*
X377200Y1026900D02*
Y1077700D01*
X886470Y1026900D02*
Y1077700D01*
D14*
X838965Y868930D02*
X841505Y871469D01*
X846583D01*
X849122Y868930D01*
Y858773D01*
X846583Y856234D01*
X841505D01*
X838965Y858773D01*
X823730Y871469D02*
X833887D01*
Y863851D01*
X828809Y866391D01*
X826269D01*
X823730Y863851D01*
Y858773D01*
X826269Y856234D01*
X831348D01*
X833887Y858773D01*
X853951Y868930D02*
X856490Y871469D01*
X861569D01*
X864108Y868930D01*
Y858773D01*
X861569Y856234D01*
X856490D01*
X853951Y858773D01*
X838716Y871469D02*
X843795Y868930D01*
X848873Y863851D01*
Y858773D01*
X846334Y856234D01*
X841255D01*
X838716Y858773D01*
Y861312D01*
X841255Y863851D01*
X848873D01*
X790959Y869184D02*
X793499Y871723D01*
X798577D01*
X801116Y869184D01*
Y859027D01*
X798577Y856488D01*
X793499D01*
X790959Y859027D01*
X778263Y856488D02*
Y871723D01*
X785881Y864106D01*
X775724D01*
X805945Y869184D02*
X808484Y871723D01*
X813563D01*
X816102Y869184D01*
Y859027D01*
X813563Y856488D01*
X808484D01*
X805945Y859027D01*
X800867Y869184D02*
X798328Y871723D01*
X793249D01*
X790710Y869184D01*
Y866645D01*
X793249Y864106D01*
X795789D01*
X793249D01*
X790710Y861566D01*
Y859027D01*
X793249Y856488D01*
X798328D01*
X800867Y859027D01*
X763527Y869184D02*
X766067Y871723D01*
X771145D01*
X773684Y869184D01*
Y859027D01*
X771145Y856488D01*
X766067D01*
X763527Y859027D01*
X748292Y856488D02*
X758449D01*
X748292Y866645D01*
Y869184D01*
X750831Y871723D01*
X755910D01*
X758449Y869184D01*
X778513D02*
X781052Y871723D01*
X786131D01*
X788670Y869184D01*
Y859027D01*
X786131Y856488D01*
X781052D01*
X778513Y859027D01*
X773435Y856488D02*
X768357D01*
X770896D01*
Y871723D01*
X773435Y869184D01*
M02*
