%TF.GenerationSoftware,Altium Limited,Altium Designer,23.4.1 (23)*%
G04 Layer_Color=0*
%FSLAX45Y45*%
%MOMM*%
%TF.SameCoordinates,7AEF0BED-FCCA-4DCD-95BC-53F5E5A48FEA*%
%TF.FilePolarity,Positive*%
%TF.FileFunction,Plated,1,2,PTH,Drill*%
%TF.Part,Single*%
G01*
G75*
%TA.AperFunction,OtherDrill,Free Pad (91.25mm,56.75mm)*%
%ADD67C,2.75000*%
%TA.AperFunction,OtherDrill,Free Pad (34.25mm,57mm)*%
%ADD68C,2.75000*%
%TA.AperFunction,ComponentDrill*%
%ADD69C,0.70000*%
%ADD70C,0.90000*%
%TA.AperFunction,OtherDrill,Free Pad (34.25mm,105.25mm)*%
%ADD71C,2.75000*%
%TA.AperFunction,OtherDrill,Pad Free-20 (52.583mm,90.5mm)*%
%ADD72C,0.90000*%
%TA.AperFunction,ComponentDrill*%
%ADD73C,1.02000*%
%TA.AperFunction,OtherDrill,Pad Free-26 (70.25mm,90.5mm)*%
%ADD74C,0.90000*%
%TA.AperFunction,ComponentDrill*%
%ADD75C,1.15000*%
%TA.AperFunction,OtherDrill,Free Pad (92mm,105mm)*%
%ADD76C,2.75000*%
%TA.AperFunction,OtherDrill,Pad Free-21 (45mm,90.5mm)*%
%ADD77C,0.90000*%
%TA.AperFunction,OtherDrill,Pad Free-21 (50.167mm,90.5mm)*%
%ADD78C,0.90000*%
%TA.AperFunction,OtherDrill,Pad Free-20 (47.583mm,90.5mm)*%
%ADD79C,0.90000*%
%TA.AperFunction,OtherDrill,Pad Free-24 (65mm,90.5mm)*%
%ADD80C,0.90000*%
%TA.AperFunction,OtherDrill,Pad Free-25 (67.625mm,90.5mm)*%
%ADD81C,0.90000*%
%TA.AperFunction,ViaDrill,NotFilled*%
%ADD82C,0.30000*%
%ADD83C,0.40000*%
%ADD84C,0.71120*%
D67*
X9125001Y5675000D02*
D03*
D68*
X3424997Y5700004D02*
D03*
D69*
X8574999Y7844998D02*
D03*
X8774999D02*
D03*
X7950002Y7850002D02*
D03*
X8150001D02*
D03*
X7324999Y7845003D02*
D03*
X7524999D02*
D03*
D70*
X4661002Y10396002D02*
D03*
Y10650002D02*
D03*
X5169002Y10396002D02*
D03*
X5677002D02*
D03*
X6185002D02*
D03*
X6439002D02*
D03*
X6693002D02*
D03*
Y10650002D02*
D03*
X6947002D02*
D03*
X7455002D02*
D03*
X7963002D02*
D03*
X8471002D02*
D03*
X8725002Y10396002D02*
D03*
Y10650002D02*
D03*
X7963002Y10396002D02*
D03*
X8471002D02*
D03*
X5423002D02*
D03*
X8217002D02*
D03*
X5931002Y10650002D02*
D03*
X6439002D02*
D03*
X7455002Y10396002D02*
D03*
X5169002Y10650002D02*
D03*
X7709002D02*
D03*
X8217002D02*
D03*
X7201002D02*
D03*
Y10396002D02*
D03*
X6947002D02*
D03*
X6185002Y10650002D02*
D03*
X5931002Y10396002D02*
D03*
X5423002Y10650002D02*
D03*
X4915002D02*
D03*
Y10396002D02*
D03*
X4407002Y10650002D02*
D03*
Y10396002D02*
D03*
X4153002Y10650002D02*
D03*
Y10396002D02*
D03*
X3899002Y10650002D02*
D03*
Y10396002D02*
D03*
X7709002D02*
D03*
X5677002Y10650002D02*
D03*
D71*
X3425002Y10524998D02*
D03*
D72*
X5258333Y9050005D02*
D03*
D73*
X9700001Y8200004D02*
D03*
Y8500003D02*
D03*
Y8800003D02*
D03*
Y9100002D02*
D03*
Y9400002D02*
D03*
Y9700001D02*
D03*
X10000000Y8199999D02*
D03*
Y8499998D02*
D03*
Y8799998D02*
D03*
Y9700001D02*
D03*
Y9400002D02*
D03*
Y9100002D02*
D03*
D74*
X7025000Y9050005D02*
D03*
D75*
X5850001Y6374999D02*
D03*
X5349997D02*
D03*
X5599999D02*
D03*
D76*
X9200002Y10500004D02*
D03*
D77*
X4500001Y9050005D02*
D03*
D78*
X5016668D02*
D03*
D79*
X4758334D02*
D03*
D80*
X6500002D02*
D03*
D81*
X6762501D02*
D03*
D82*
X8650000Y8550000D02*
D03*
X8500000D02*
D03*
X8425000Y8225000D02*
D03*
X9175000Y7250000D02*
D03*
X6050000Y7450000D02*
D03*
X5575000Y7425000D02*
D03*
X5050000D02*
D03*
X7675000Y8225000D02*
D03*
X8050000Y9050000D02*
D03*
X8275000Y8225000D02*
D03*
X8125000D02*
D03*
X7975000D02*
D03*
X7850000D02*
D03*
D83*
X7875000Y9050000D02*
D03*
D84*
X9725000Y6574998D02*
D03*
%TF.MD5,1ae5aca86d3a8c69f9009f073c3229fe*%
M02*
