M48
;Layer_Color=9474304
;FILE_FORMAT=4:4
METRIC,LZ
;TYPE=PLATED
T1F00S00C0.3000
T2F00S00C0.4000
T3F00S00C0.7000
T4F00S00C0.7112
T5F00S00C0.9000
T6F00S00C1.0200
T7F00S00C1.1500
T8F00S00C2.7500
;TYPE=NON_PLATED
T9F00S00C3.0000
%
T01
X009175Y00725
X00605Y00745
X005575Y007425
X00505
X007675Y008225
X00785
X007975
X008125
X008275
X008425
X0085Y00855
X00865
X00805Y00905
T02
X007875Y00905
T03
X00795Y00785
X00815
X008575Y007845
X008775
X007525Y007845
X007325
T04
X009725Y006575
T05
X003899Y010396
Y01065
X004153
X004407
X004661
Y010396
X004915
X005169
X005423
X005677
X005931
X006185
X006439
X006693
Y01065
X006947
X007201
X007455
Y010396
X007201
X006947
X006439Y01065
X006185
X005931
X005677
X005423
X005169
X004915
X004407Y010396
X004153
X0045Y00905001
X00475833
X00501667
X00525833
X0065
X0067625
X007025
X007709Y010396
Y01065
X007963
Y010396
X008217
X008471
Y01065
X008725
Y010396
X008217Y01065
T06
X0097Y0082
Y0085
Y0088
Y0091
Y0094
Y0097
X01
Y0094
Y0091
Y0088
Y0085
Y0082
T07
X00535Y006375
X0056
X00585
T08
X009125Y005675
X003425Y0057
X003425Y010525
X0092Y0105
T09
X01043Y008416
Y009484
M30
